<svg width="51" height="41" viewBox="0 0 51 41" fill="none" xmlns="http://www.w3.org/2000/svg">
<path d="M9.45834 22.7917H16.3333M2.58334 13.625L7.16667 15.9167L10.0786 7.18102C10.6796 5.37789 10.9801 4.47632 11.5375 3.80977C12.0298 3.22116 12.6619 2.76555 13.376 2.48471C14.1846 2.16669 15.1349 2.16669 17.0356 2.16669H33.9644C35.8651 2.16669 36.8154 2.16669 37.6241 2.48471C38.3381 2.76555 38.9702 3.22116 39.4625 3.80977C40.0199 4.47632 40.3204 5.37789 40.9214 7.18102L43.8333 15.9167L48.4167 13.625M34.6667 22.7917H41.5417M13.5833 15.9167H37.4167C41.267 15.9167 43.1922 15.9167 44.6629 16.666C45.9565 17.3251 47.0082 18.3769 47.6673 19.6705C48.4167 21.1411 48.4167 23.0663 48.4167 26.9167V33.1042C48.4167 34.169 48.4167 34.7014 48.3286 35.1442C47.9669 36.9623 46.5457 38.3836 44.7275 38.7453C44.2848 38.8334 43.7523 38.8334 42.6875 38.8334H41.5417C39.0104 38.8334 36.9583 36.7813 36.9583 34.25C36.9583 33.6172 36.4453 33.1042 35.8125 33.1042H15.1875C14.5547 33.1042 14.0417 33.6172 14.0417 34.25C14.0417 36.7813 11.9896 38.8334 9.45834 38.8334H8.3125C7.24767 38.8334 6.71525 38.8334 6.27251 38.7453C4.45434 38.3836 3.03306 36.9623 2.6714 35.1442C2.58334 34.7014 2.58334 34.169 2.58334 33.1042V26.9167C2.58334 23.0663 2.58334 21.1411 3.33267 19.6705C3.9918 18.3769 5.04354 17.3251 6.33715 16.666C7.80779 15.9167 9.73298 15.9167 13.5833 15.9167Z" stroke="#037E83" stroke-width="4" stroke-linecap="round" stroke-linejoin="round"/>
</svg>
