<svg width="313" height="40" viewBox="0 0 313 40" fill="none" xmlns="http://www.w3.org/2000/svg">
<path d="M160.832 29.0592C164.743 29.5808 166.511 31.2325 166.511 34.1446C166.515 34.8142 166.38 35.4772 166.116 36.0924C165.851 36.7076 165.463 37.2616 164.975 37.7198C164.487 38.1781 163.909 38.5307 163.279 38.7556C162.648 38.9806 161.978 39.073 161.31 39.0272C157.659 39.0272 154.066 39.0272 150.357 39.0272C147.14 39.0272 144.952 37.0568 144.88 34.2316C144.807 31.4063 146.821 29.4794 149.98 29.2186C150.151 29.199 150.321 29.165 150.487 29.1172C142.852 24.9156 139.751 18.6131 141.794 11.4414C142.666 8.25529 144.6 5.46277 147.277 3.52673C149.953 1.59069 153.211 0.627378 156.51 0.796469C159.809 0.965561 162.951 2.2569 165.416 4.45645C167.88 6.65599 169.519 9.63167 170.061 12.8903C171.321 19.468 167.771 25.8863 160.832 29.0592Z" fill="#040404"/>
<path d="M201.167 4.76232C204.702 4.76232 208.223 4.76232 211.758 4.6609C212.671 4.6609 213.091 5.25492 213.584 5.80548C215.064 7.4576 216.145 9.42763 216.744 11.5637C217.343 13.6998 217.443 15.9448 217.037 18.1258C216.631 20.3068 215.73 22.3654 214.403 24.1429C213.075 25.9205 211.358 27.3695 209.382 28.3783C208.947 28.6101 208.484 28.8129 208.035 29.0302C208.136 29.4359 208.382 29.291 208.585 29.3055C209.249 29.2845 209.91 29.3987 210.528 29.6412C211.146 29.8837 211.709 30.2494 212.181 30.716C212.654 31.1827 213.026 31.7406 213.276 32.3557C213.526 32.9709 213.649 33.6305 213.636 34.2944C213.623 34.9584 213.476 35.6128 213.202 36.2178C212.928 36.8229 212.535 37.366 212.044 37.8141C211.554 38.2622 210.978 38.606 210.351 38.8245C209.724 39.043 209.059 39.1317 208.397 39.0851C206.194 39.0851 204.05 39.0851 201.79 39.0851H197.632C194.213 39.0851 192.01 37.2886 191.837 34.4199C191.663 31.5512 193.807 29.5084 197.632 29.2041C191.923 26.4223 188.432 22.3077 188.316 15.9183C189.272 15.4982 189.359 16.3385 189.663 16.8601C190.266 19.9391 191.78 22.766 194.01 24.9735C196.439 27.2693 199.663 28.5347 203.005 28.5041C206.347 28.4736 209.547 27.1494 211.934 24.8096C214.321 22.4698 215.708 19.2964 215.805 15.9555C215.902 12.6147 214.701 9.3662 212.453 6.8921C212.155 6.54294 211.777 6.26981 211.352 6.09525C208.527 5.71855 205.702 6.09525 202.891 5.89241C202.181 5.84894 201.008 6.25462 201.167 4.76232Z" fill="#040404"/>
<path d="M296.66 0.850476C299.729 0.727692 302.8 1.05969 305.773 1.83568C310.264 3.15412 312.35 5.64611 312.597 10.3113C312.806 13.7343 312.226 17.1595 310.902 20.3228C307.787 27.6683 300.919 29.8126 295.124 29.1896C286.59 28.2769 281.635 23.0176 280.809 14.3826C280.654 12.9392 280.615 11.4857 280.693 10.0361C280.673 8.1419 281.311 6.29936 282.497 4.8225C283.683 3.34565 285.345 2.3259 287.199 1.9371C290.278 1.09167 293.469 0.725174 296.66 0.850476Z" fill="#040404"/>
<path d="M108.688 29.914C106.467 29.9199 104.275 29.411 102.284 28.4274C100.293 27.4438 98.5574 26.0121 97.2126 24.2449C95.8679 22.4776 94.9509 20.4227 94.5338 18.2415C94.1166 16.0603 94.2106 13.812 94.8083 11.6732C95.198 10.3413 95.6821 9.0389 96.2571 7.77589C96.5904 6.96455 97.025 6.22564 96.4745 5.35634C96.4745 5.25492 96.3296 5.12453 96.3441 5.0376C96.9671 3.24105 98.894 2.89333 100.068 1.71978C100.153 1.6086 100.262 1.51853 100.388 1.45654C100.514 1.39455 100.652 1.36231 100.792 1.36231C100.932 1.36231 101.07 1.39455 101.196 1.45654C101.322 1.51853 101.431 1.6086 101.516 1.71978C101.737 1.98496 102.045 2.16276 102.385 2.22118C102.725 2.27961 103.074 2.21484 103.371 2.03852C105.086 1.32478 106.925 0.957326 108.782 0.957326C110.64 0.957326 112.479 1.32478 114.194 2.03852C114.599 2.19789 115.063 2.54561 115.454 2.03852C116.497 0.792523 117.338 1.54592 118.221 2.22687C118.859 2.71947 119.511 3.21207 120.192 3.6757C120.873 4.13932 121.525 4.74783 120.902 5.76201C120.467 6.48643 120.989 7.10943 121.264 7.71794C122.959 11.4994 123.93 15.3388 122.713 19.4824C121.83 22.511 119.982 25.1686 117.451 27.0513C114.919 28.9341 111.843 29.9392 108.688 29.914Z" fill="#040404"/>
<path d="M22.7145 3.37144C30.1614 7.29778 31.6103 18.7291 25.4962 25.2778C23.728 27.2105 21.4547 28.6106 18.933 29.32C18.0637 29.5663 17.6001 29.914 17.658 30.7688C17.716 31.6237 17.2668 31.87 16.4845 31.8265C15.6208 31.7758 14.7548 31.7758 13.8911 31.8265C12.732 31.8265 11.8048 31.8265 11.9207 30.2762C11.9207 29.2621 10.9934 29.3925 10.3994 29.1896C7.60919 28.289 5.15791 26.563 3.3694 24.2398C1.5809 21.9165 0.539344 19.1053 0.382361 16.1775C0.225377 13.2498 0.960351 10.3433 2.49017 7.84212C4.01999 5.34093 6.27267 3.36274 8.95055 2.16891C12.2106 0.63541 15.9448 0.453129 19.3387 1.66182C19.4714 1.79239 19.5542 1.96532 19.5727 2.15058C19.5913 2.33584 19.5443 2.52174 19.4401 2.676C18.7881 3.19758 18.1072 2.86435 17.4552 2.676C14.1673 1.85446 10.6883 2.35427 7.76469 4.06821C4.84105 5.78216 2.7056 8.5737 1.81646 11.844C0.927324 15.1143 1.35533 18.6028 3.00865 21.5611C4.66197 24.5195 7.40891 26.712 10.6602 27.6683C11.2906 27.7838 11.8876 28.0371 12.4086 28.4103C12.9296 28.7836 13.3616 29.2674 13.6737 29.8271C13.8178 30.0169 14.0064 30.1683 14.2229 30.2678C14.4394 30.3673 14.6772 30.4118 14.915 30.3975C15.1528 30.3832 15.3835 30.3104 15.5865 30.1856C15.7895 30.0609 15.9586 29.888 16.0788 29.6822C16.3472 29.2034 16.7127 28.786 17.1518 28.4567C17.5909 28.1274 18.094 27.8934 18.6287 27.7698C21.2708 26.9937 23.5907 25.3831 25.2412 23.1789C26.8918 20.9747 27.7843 18.2953 27.7854 15.5416C27.8284 13.9448 27.5562 12.3551 26.9844 10.8635C26.4126 9.37187 25.5524 8.00759 24.4531 6.84864C23.5982 5.9069 22.4392 5.19697 21.9031 4.03791C21.99 3.53081 21.99 3.03821 22.7145 3.37144Z" fill="#040404"/>
<path d="M249.674 4.68988C251.644 4.68988 253.629 4.7913 255.585 4.68988C256.273 4.6533 256.961 4.76358 257.603 5.01338C258.245 5.26319 258.826 5.6468 259.309 6.13871C261.088 7.73538 262.445 9.74762 263.258 11.996C264.071 14.2444 264.315 16.659 263.968 19.0245C263.621 21.3901 262.694 23.633 261.27 25.5533C259.846 27.4737 257.968 29.0117 255.805 30.0303C253.642 31.0489 251.261 31.5163 248.873 31.391C246.486 31.2656 244.166 30.5514 242.122 29.3119C240.077 28.0725 238.371 26.3464 237.156 24.2875C235.941 22.2286 235.254 19.9009 235.157 17.512C235.05 15.2037 235.505 12.904 236.481 10.8097C237.457 8.71544 238.927 6.88899 240.764 5.48674C241.42 4.91694 242.271 4.62129 243.14 4.6609C245.284 4.71886 247.486 4.67539 249.674 4.68988Z" fill="#040404"/>
<path d="M61.8764 4.67539C64.6581 4.67539 67.4399 4.67539 70.2071 4.67539C70.6847 4.64558 71.1623 4.7345 71.5971 4.93423C72.032 5.13395 72.4106 5.43826 72.6991 5.81997C74.5257 7.91666 75.7104 10.4947 76.1116 13.2464C76.5129 15.998 76.1138 18.807 74.962 21.3381C73.8102 23.8691 71.9544 26.0151 69.6161 27.5201C67.2777 29.025 64.5557 29.8253 61.7749 29.8253C58.9942 29.8253 56.2722 29.025 53.9338 27.5201C51.5955 26.0151 49.7397 23.8691 48.5879 21.3381C47.4361 18.807 47.037 15.998 47.4383 13.2464C47.8395 10.4947 49.0241 7.91666 50.8508 5.81997C51.1375 5.43081 51.5171 5.11958 51.9548 4.91461C52.3926 4.70963 52.8747 4.61744 53.3572 4.64641C56.197 4.73334 59.0367 4.67539 61.8764 4.67539Z" fill="#040404"/>
<path d="M189.301 16.9035C188.895 16.6283 189.04 15.7879 188.272 15.8604C188.141 13.9265 188.422 11.9867 189.1 10.1704C189.777 8.35407 190.833 6.70302 192.199 5.32737C192.383 5.10567 192.617 4.93 192.881 4.81431C193.145 4.69862 193.432 4.6461 193.72 4.6609C196.198 4.6609 198.675 4.73334 201.167 4.76232C201.355 5.71855 202.123 5.4143 202.688 5.42878C205.224 5.42878 207.774 5.42878 210.309 5.42878C210.86 5.42878 211.468 5.25492 211.946 5.73304C211.251 6.45745 210.338 6.26911 209.498 6.28359C204.934 6.28359 200.385 6.35604 195.821 6.28359C195.018 6.21991 194.214 6.39499 193.51 6.78681C192.807 7.17864 192.234 7.76974 191.866 8.48582C190.634 10.3809 189.939 12.5735 189.852 14.8317C189.852 15.5416 189.953 16.3385 189.301 16.9035Z" fill="#101010"/>
<path d="M22.7145 3.37144C22.2653 3.37144 22.1059 3.70467 22.0915 4.11035C20.9759 4.00893 19.8747 3.87853 19.3387 2.66152V1.66182C20.6003 1.90872 21.7688 2.5005 22.7145 3.37144Z" fill="#181818"/>
<path d="M155.703 28.7695C152.152 28.7695 148.747 27.359 146.237 24.8484C143.726 22.3379 142.316 18.9328 142.316 15.3823C142.316 11.8317 143.726 8.42666 146.237 5.91607C148.747 3.40549 152.152 1.99505 155.703 1.99505C159.253 1.99505 162.658 3.40549 165.169 5.91607C167.679 8.42666 169.09 11.8317 169.09 15.3823C169.09 18.9328 167.679 22.3379 165.169 24.8484C162.658 27.359 159.253 28.7695 155.703 28.7695Z" fill="#FDFDFD"/>
<path d="M155.746 30.3777C157.702 30.3777 159.673 30.3777 161.643 30.3777C162.146 30.3593 162.647 30.445 163.115 30.6295C163.583 30.8139 164.008 31.0931 164.363 31.4495C164.718 31.806 164.996 32.2319 165.178 32.7007C165.361 33.1695 165.445 33.6709 165.424 34.1736C165.445 34.6674 165.363 35.1601 165.184 35.6208C165.005 36.0815 164.733 36.5004 164.385 36.8512C164.037 37.2021 163.62 37.4773 163.161 37.6598C162.701 37.8422 162.209 37.9279 161.715 37.9116C157.784 37.9116 153.848 37.9116 149.907 37.9116C148.92 37.9116 147.973 37.5193 147.274 36.821C146.576 36.1227 146.184 35.1756 146.184 34.1881C146.184 33.2006 146.576 32.2535 147.274 31.5552C147.973 30.8569 148.92 30.4646 149.907 30.4646C150.893 30.4646 151.878 30.4646 152.805 30.4646L155.746 30.3777Z" fill="#FCFCFC"/>
<path d="M189.301 16.9035C188.966 13.2425 190.091 9.59728 192.431 6.76171C192.683 6.42119 193.017 6.14975 193.402 5.97249C193.787 5.79523 194.21 5.71785 194.633 5.74753C200.428 5.74753 206.223 5.74753 212.019 5.74753C214.049 7.68964 215.409 10.2265 215.904 12.992C216.399 15.7574 216.002 18.6086 214.772 21.1341C213.558 23.6631 211.581 25.7475 209.12 27.0936C206.659 28.4397 203.837 28.9796 201.053 28.6371C198.269 28.2947 195.663 27.0873 193.601 25.1849C191.539 23.2826 190.127 20.7814 189.562 18.0336L189.301 16.9035Z" fill="#FCFCFC"/>
<path d="M202.572 37.8536C200.66 37.8536 198.747 37.8536 196.85 37.8536C195.862 37.8536 194.915 37.4613 194.217 36.763C193.518 36.0648 193.126 35.1177 193.126 34.1301C193.126 33.1426 193.518 32.1955 194.217 31.4972C194.915 30.7989 195.862 30.4066 196.85 30.4066C200.776 30.4066 204.717 30.4066 208.643 30.4066C209.631 30.4066 210.578 30.7989 211.276 31.4972C211.974 32.1955 212.366 33.1426 212.366 34.1301C212.366 35.1177 211.974 36.0648 211.276 36.763C210.578 37.4613 209.631 37.8536 208.643 37.8536C207.6 37.8536 206.557 37.8536 205.514 37.8536H202.572Z" fill="#FCFCFC"/>
<path d="M284.62 4.45807C286.868 3.01023 289.48 2.22677 292.154 2.19789C296.588 1.66198 301.082 1.92202 305.425 2.96577C309.612 4.11035 311.322 6.35604 311.467 10.717C311.584 13.497 311.176 16.2742 310.264 18.9029C309.527 21.2687 308.131 23.3755 306.24 24.9767C304.349 26.5778 302.041 27.607 299.586 27.9436C296.865 28.5746 294.023 28.4443 291.371 27.5669C288.99 26.6788 286.888 25.1713 285.284 23.2C283.679 21.2288 282.63 18.8652 282.244 16.353C281.747 14.0306 281.625 11.6437 281.881 9.28268C282.591 9.28268 282.562 9.94914 282.823 10.3548C283.968 13.3539 285.286 14.3391 287.967 14.3826C288.901 14.4719 289.839 14.2562 290.641 13.7679C291.443 13.2795 292.065 12.5446 292.414 11.6732C292.849 10.8107 293.02 9.83883 292.904 8.8798C292.788 7.92078 292.391 7.01749 291.762 6.28359C291.17 5.56011 290.385 5.01858 289.498 4.72128C288.611 4.42397 287.659 4.38296 286.75 4.60295C286.185 4.71886 285.692 5.08106 285.069 4.99413C284.808 4.9072 284.591 4.7913 284.62 4.45807Z" fill="#FBFBFB"/>
<path d="M284.62 4.45807L285.011 4.77681C285.04 4.97663 285.017 5.18069 284.943 5.36875C284.87 5.5568 284.748 5.72234 284.591 5.84894C284.072 6.3333 283.654 6.91542 283.36 7.56187C283.067 8.20832 282.904 8.90636 282.881 9.61591C282.873 9.75728 282.831 9.89453 282.757 10.0157C282.684 10.1369 282.582 10.2384 282.461 10.3113L281.881 9.28268C281.898 8.31367 282.157 7.3643 282.636 6.52144C283.114 5.67858 283.796 4.96915 284.62 4.45807Z" fill="#CCCCCC"/>
<path d="M108.688 28.7695C106.625 28.7813 104.588 28.3115 102.738 27.3975C100.889 26.4835 99.2784 25.1505 98.0348 23.5045C96.7912 21.8585 95.9488 19.945 95.5748 17.9162C95.2008 15.8874 95.3055 13.7994 95.8804 11.8181C96.3006 10.3693 96.9526 9.0074 97.4886 7.61652C97.6335 7.23982 97.9957 6.7762 97.8798 6.50092C96.8801 4.03791 99.3287 3.99444 100.314 2.89333C100.517 2.66152 100.835 2.54561 101.067 2.89333C102.009 4.08137 103.052 3.44388 103.965 3.0527C107.12 1.80296 110.642 1.85506 113.759 3.19758C114.585 3.53081 115.382 3.89302 116.106 3.03821C116.352 2.74845 116.715 2.58907 117.004 2.93679C117.903 4.06688 120.496 4.05239 119.438 6.55887C119.308 6.84864 119.757 7.38471 119.931 7.80487C121.496 11.34 122.713 14.9041 121.626 18.8595C120.863 21.7061 119.181 24.221 116.841 26.0131C114.501 27.8052 111.635 28.7742 108.688 28.7695Z" fill="#FDFDFD"/>
<path d="M19.3387 2.676L22.0915 4.12484C26.8581 7.54408 29.0603 12.1514 27.8868 17.9322C27.4731 20.4828 26.2943 22.8474 24.5064 24.7129C22.7185 26.5784 20.406 27.8567 17.8754 28.3783C17.1075 28.5811 16.5714 28.8709 16.6294 29.7402C16.7163 31.189 15.6297 30.7544 14.9632 30.6964C14.2967 30.6385 13.0363 31.3918 13.0363 29.8271C13.0363 28.755 12.3698 28.5521 11.515 28.3783C8.81579 27.6978 6.39621 26.192 4.59363 24.0709C2.79106 21.9497 1.69535 19.3189 1.4593 16.5452C1.22325 13.7716 1.85862 10.9935 3.27681 8.59819C4.695 6.20291 6.82532 4.30988 9.37071 3.18309C12.1619 1.82582 15.3691 1.59747 18.3245 2.54561C18.6581 2.61843 18.9975 2.66206 19.3387 2.676Z" fill="#FDFDFD"/>
<path d="M262.742 19.6853C262.3 22.4733 260.788 24.9788 258.526 26.6687C257.802 26.5672 258.077 25.9877 258.063 25.5965C258.088 25.3389 258.057 25.0788 257.973 24.8341C257.889 24.5894 257.752 24.3659 257.573 24.1787C257.395 23.9916 257.177 23.8453 256.937 23.75C256.696 23.6546 256.438 23.6123 256.179 23.6261C255.963 23.5905 255.741 23.6043 255.531 23.6667C255.321 23.729 255.128 23.8382 254.966 23.9861C254.804 24.1339 254.678 24.3166 254.597 24.5202C254.516 24.7239 254.482 24.9433 254.499 25.1619C254.439 25.416 254.44 25.6806 254.501 25.9343C254.562 26.188 254.683 26.4237 254.852 26.6225C255.021 26.8213 255.234 26.9775 255.475 27.0787C255.716 27.1798 255.977 27.223 256.237 27.2047C256.464 27.1876 256.691 27.2174 256.905 27.2922C257.12 27.367 257.316 27.4852 257.483 27.6394C250.471 33.4347 238.909 29.4214 236.692 20.2938C236.015 17.8491 236.065 15.26 236.837 12.8435C237.609 10.4271 239.07 8.28833 241.039 6.68927C241.366 6.3701 241.754 6.11975 242.179 5.95302C242.605 5.78629 243.059 5.70656 243.516 5.71855C247.612 5.7765 251.712 5.7765 255.817 5.71855C256.274 5.69742 256.731 5.76721 257.162 5.92389C257.592 6.08056 257.987 6.32101 258.323 6.63131C260.592 8.54744 262.161 11.1612 262.786 14.0638C262.931 14.4985 263.076 14.9186 262.569 15.2229C261.96 15.2229 261.743 14.6578 261.395 14.2956C260.981 13.7922 260.464 13.3829 259.879 13.0952C259.294 12.8075 258.655 12.6481 258.003 12.6275C257.352 12.6069 256.703 12.7257 256.101 12.9759C255.499 13.2261 254.958 13.602 254.513 14.0783C254.056 14.5218 253.696 15.055 253.454 15.6444C253.213 16.2338 253.097 16.8667 253.111 17.5034C253.126 18.14 253.273 18.7667 253.541 19.3442C253.81 19.9216 254.195 20.4373 254.672 20.8588C255.161 21.289 255.733 21.6129 256.354 21.8099C256.974 22.007 257.629 22.0728 258.276 22.0033C258.923 21.9338 259.549 21.7305 260.113 21.4063C260.677 21.0821 261.168 20.644 261.554 20.1199C261.766 19.776 262.041 19.4759 262.366 19.2361C262.626 19.2651 262.844 19.3376 262.742 19.6853Z" fill="#FBFBFB"/>
<path d="M257.483 27.6683C255.252 27.9291 254.223 27.451 253.948 26.0022C253.826 25.5555 253.843 25.0823 253.995 24.6452C254.148 24.2081 254.429 23.8275 254.803 23.5537C255.165 23.267 255.608 23.0993 256.069 23.0733C256.531 23.0474 256.989 23.1646 257.382 23.4088C257.784 23.6315 258.114 23.9664 258.33 24.3727C258.546 24.7791 258.639 25.2395 258.599 25.6979C258.599 26.0457 257.932 26.3354 258.526 26.6976L257.483 27.6683Z" fill="#171717"/>
<path d="M262.38 15.136C262.974 14.9476 262.511 14.4115 262.742 14.0928C263.264 15.9303 263.264 17.8768 262.742 19.7143L262.453 19.41C262.103 18.0095 262.078 16.5475 262.38 15.136Z" fill="#828282"/>
<path d="M61.7605 5.7765C64.4118 5.7765 67.0777 5.84894 69.7435 5.7765C70.2259 5.73667 70.71 5.8289 71.1439 6.0433C71.5778 6.25771 71.9451 6.58619 72.2065 6.99352C73.8413 8.9272 74.8699 11.2999 75.1637 13.8149C75.4574 16.3299 75.0033 18.8757 73.8582 21.1341C72.8185 23.4827 71.0997 25.4663 68.923 26.8296C66.7463 28.193 64.2114 28.8736 61.6446 28.7839C55.8492 28.8854 52.0243 25.8863 49.6772 21.0472C48.5375 18.7762 48.0959 16.2186 48.4078 13.6969C48.7198 11.1752 49.7715 8.80238 51.4303 6.87761C51.6858 6.5012 52.0359 6.19862 52.4453 6.00026C52.8547 5.8019 53.3091 5.71474 53.7629 5.74753C56.4288 5.83446 59.0946 5.7765 61.7605 5.7765Z" fill="#FBFBFB"/>
<path d="M155.471 19.3086C155.961 19.2792 156.452 19.3472 156.916 19.5085C157.38 19.6699 157.808 19.9214 158.174 20.2487C158.54 20.5759 158.838 20.9724 159.051 21.4153C159.263 21.8582 159.386 22.3387 159.412 22.8292C159.412 23.8236 159.022 24.7783 158.326 25.4881C157.629 26.1979 156.682 26.6062 155.688 26.6252C154.725 26.6099 153.807 26.2146 153.134 25.5252C152.461 24.8359 152.087 23.9085 152.095 22.9452C152.074 22.4837 152.145 22.0226 152.303 21.5889C152.462 21.1551 152.706 20.7573 153.02 20.4187C153.334 20.0802 153.713 19.8076 154.134 19.617C154.555 19.4264 155.009 19.3216 155.471 19.3086Z" fill="#1E1E1E"/>
<path d="M161.281 13.4698C160.805 13.4717 160.333 13.3793 159.892 13.198C159.452 13.0166 159.052 12.7499 158.715 12.4132C158.379 12.0765 158.112 11.6764 157.93 11.2361C157.749 10.7958 157.657 10.3239 157.659 9.84772C157.654 8.88755 158.024 7.9634 158.689 7.27106C159.354 6.57872 160.263 6.17259 161.223 6.13871C162.214 6.15 163.162 6.54898 163.864 7.25027C164.565 7.95156 164.964 8.89947 164.975 9.89118C164.942 10.8496 164.538 11.7577 163.849 12.4249C163.16 13.0922 162.24 13.4666 161.281 13.4698Z" fill="#1E1E1E"/>
<path d="M150.139 13.4698C149.667 13.4679 149.201 13.3725 148.766 13.1889C148.332 13.0053 147.938 12.7373 147.608 12.4003C147.277 12.0634 147.017 11.6643 146.843 11.2261C146.668 10.7879 146.582 10.3194 146.59 9.84772C146.574 8.88673 146.938 7.95834 147.602 7.26398C148.267 6.56961 149.178 6.16528 150.139 6.13871C151.118 6.17195 152.048 6.57972 152.735 7.27793C153.422 7.97614 153.816 8.91153 153.834 9.89118C153.796 10.8484 153.392 11.7544 152.704 12.4209C152.016 13.0874 151.097 13.4631 150.139 13.4698Z" fill="#1F1F1F"/>
<path d="M163.295 20.3373C162.979 20.3415 162.666 20.2813 162.374 20.1602C162.083 20.0392 161.819 19.8599 161.599 19.6334C161.38 19.4069 161.209 19.1379 161.096 18.8428C160.984 18.5478 160.934 18.233 160.947 17.9177C160.99 17.324 161.266 16.7715 161.716 16.3816C162.165 15.9917 162.752 15.7964 163.345 15.8386C163.939 15.8809 164.492 16.1573 164.881 16.607C165.271 17.0566 165.467 17.6428 165.424 18.2365C165.406 18.7927 165.175 19.3208 164.778 19.7116C164.382 20.1025 163.851 20.3264 163.295 20.3373Z" fill="#111111"/>
<path d="M150.487 18.0771C150.493 18.3699 150.44 18.661 150.332 18.9332C150.224 19.2054 150.063 19.4533 149.857 19.6625C149.652 19.8716 149.408 20.0377 149.138 20.1511C148.868 20.2645 148.578 20.3228 148.285 20.3228C147.98 20.3266 147.678 20.2698 147.396 20.1556C147.114 20.0413 146.858 19.872 146.642 19.6575C146.426 19.4431 146.255 19.1877 146.139 18.9064C146.023 18.625 145.965 18.3234 145.967 18.0191C145.974 17.7165 146.042 17.4185 146.167 17.143C146.293 16.8674 146.472 16.62 146.696 16.4157C146.919 16.2113 147.181 16.0542 147.467 15.9538C147.752 15.8534 148.055 15.8118 148.357 15.8314C148.646 15.833 148.932 15.8931 149.197 16.008C149.463 16.1229 149.702 16.2903 149.901 16.5001C150.1 16.7099 150.254 16.9577 150.355 17.2287C150.456 17.4997 150.501 17.7883 150.487 18.0771Z" fill="#121212"/>
<path d="M153.834 34.1736C153.813 34.8978 153.522 35.5881 153.018 36.1083C152.514 36.6286 151.833 36.9412 151.11 36.9843C150.735 36.9957 150.362 36.9332 150.011 36.8003C149.66 36.6674 149.339 36.4668 149.066 36.2098C148.793 35.9529 148.573 35.6446 148.419 35.3027C148.265 34.9608 148.18 34.5919 148.169 34.2171C148.157 33.8422 148.22 33.4688 148.353 33.1182C148.486 32.7675 148.686 32.4465 148.943 32.1734C149.2 31.9003 149.508 31.6804 149.85 31.5265C150.192 31.3725 150.561 31.2874 150.936 31.2759C151.32 31.2639 151.702 31.3306 152.059 31.4719C152.416 31.6133 152.74 31.8263 153.012 32.0978C153.283 32.3693 153.496 32.6936 153.638 33.0506C153.779 33.4076 153.846 33.7898 153.834 34.1736Z" fill="#0E0E0E"/>
<path d="M160.542 36.9119C159.99 36.9258 159.447 36.7763 158.98 36.4821C158.514 36.1879 158.144 35.7623 157.919 35.2587C157.694 34.7552 157.622 34.1962 157.714 33.6521C157.805 33.1081 158.056 32.6033 158.434 32.2014C158.812 31.7994 159.3 31.5182 159.837 31.3931C160.375 31.268 160.937 31.3047 161.454 31.4985C161.97 31.6923 162.418 32.0346 162.74 32.4822C163.063 32.9299 163.245 33.4629 163.266 34.0142C163.267 34.7535 162.986 35.4654 162.479 36.0041C161.973 36.5428 161.28 36.8675 160.542 36.9119Z" fill="#111111"/>
<path d="M207.064 19.6853C207.501 19.6871 207.933 19.7759 208.335 19.9466C208.737 20.1172 209.101 20.3663 209.406 20.6792C209.711 20.9921 209.95 21.3626 210.11 21.7691C210.27 22.1756 210.348 22.6098 210.338 23.0466C210.319 23.9177 209.96 24.7468 209.337 25.3562C208.714 25.9655 207.877 26.3067 207.006 26.3064C206.106 26.3065 205.243 25.9522 204.603 25.3204C203.963 24.6885 203.598 23.83 203.587 22.9307C203.621 22.0403 204.005 21.1995 204.657 20.5916C205.308 19.9836 206.173 19.6579 207.064 19.6853Z" fill="#1D1D1D"/>
<path d="M190.953 15.6865C190.951 15.2378 191.039 14.7932 191.213 14.3794C191.387 13.9657 191.642 13.5913 191.964 13.2788C192.286 12.9663 192.668 12.722 193.087 12.5606C193.505 12.3992 193.952 12.3241 194.401 12.3397C194.84 12.3511 195.273 12.449 195.675 12.6277C196.077 12.8065 196.439 13.0626 196.742 13.3814C197.045 13.7003 197.282 14.0756 197.439 14.4861C197.597 14.8965 197.672 15.3339 197.661 15.7734C197.649 16.2129 197.552 16.6459 197.373 17.0476C197.194 17.4493 196.938 17.8118 196.619 18.1145C196.3 18.4172 195.925 18.6542 195.515 18.8118C195.104 18.9695 194.667 19.0447 194.227 19.0333C193.792 19.0295 193.362 18.9399 192.962 18.7694C192.562 18.599 192.199 18.3512 191.895 18.0402C191.59 17.7292 191.351 17.3612 191.189 16.9573C191.027 16.5534 190.947 16.1215 190.953 15.6865Z" fill="#1E1E1E"/>
<path d="M208.006 15.73C207.992 15.2847 208.069 14.8413 208.231 14.4266C208.394 14.0119 208.639 13.6345 208.952 13.3175C209.265 13.0005 209.639 12.7503 210.052 12.5822C210.464 12.4142 210.907 12.3316 211.352 12.3397C212.24 12.3282 213.096 12.6697 213.732 13.2892C214.367 13.9087 214.731 14.7554 214.743 15.643C214.754 16.5307 214.413 17.3865 213.793 18.0223C213.174 18.6581 212.327 19.0218 211.439 19.0333C210.994 19.0529 210.55 18.9819 210.133 18.8245C209.716 18.6672 209.335 18.4267 209.014 18.1178C208.693 17.8089 208.438 17.4379 208.265 17.0274C208.091 16.617 208.003 16.1756 208.006 15.73Z" fill="#1E1E1E"/>
<path d="M206.165 15.759C206.162 16.2079 206.068 16.6515 205.888 17.0627C205.707 17.4739 205.445 17.844 205.117 18.1505C204.789 18.4569 204.402 18.6932 203.979 18.845C203.557 18.9968 203.107 19.0609 202.659 19.0333C202.22 19.0124 201.789 18.9051 201.391 18.7176C200.993 18.53 200.635 18.2659 200.339 17.9404C200.043 17.6148 199.815 17.2341 199.666 16.82C199.517 16.406 199.451 15.9666 199.472 15.5271C199.493 15.0876 199.6 14.6565 199.788 14.2585C199.975 13.8605 200.239 13.5033 200.565 13.2073C200.89 12.9113 201.271 12.6823 201.685 12.5335C202.099 12.3846 202.539 12.3188 202.978 12.3397C203.853 12.3737 204.679 12.7522 205.276 13.3927C205.873 14.0332 206.193 14.8837 206.165 15.759Z" fill="#1C1C1C"/>
<path d="M195.937 21.0472C196.365 20.4422 196.983 19.9979 197.693 19.7852C198.403 19.5726 199.164 19.6038 199.854 19.8738C200.544 20.1439 201.124 20.6373 201.501 21.2754C201.879 21.9134 202.031 22.6594 201.935 23.3943C201.848 24.123 201.521 24.8021 201.006 25.3245C200.491 25.8468 199.816 26.1827 199.088 26.279C198.361 26.3753 197.622 26.2267 196.988 25.8565C196.355 25.4863 195.862 24.9157 195.589 24.2346C195.372 23.8869 195.386 23.5971 195.806 23.4233C196.415 23.5826 196.647 24.1767 197.081 24.5389C197.514 24.9248 198.074 25.1381 198.653 25.1381C199.233 25.1381 199.793 24.9248 200.225 24.5389C200.627 24.1954 200.882 23.7104 200.936 23.1843C200.99 22.6582 200.839 22.1316 200.515 21.7136C200.382 21.4665 200.201 21.2483 199.982 21.0719C199.764 20.8954 199.512 20.7643 199.242 20.6861C198.973 20.6078 198.69 20.5841 198.411 20.6163C198.132 20.6484 197.862 20.7358 197.617 20.8733C197.162 21.1467 196.675 21.3655 196.169 21.5253C195.995 21.4818 195.85 21.3949 195.937 21.0472Z" fill="#191919"/>
<path d="M206.861 7.05148C207.132 7.03895 207.402 7.08332 207.655 7.18175C207.908 7.28017 208.137 7.43046 208.328 7.62293C208.519 7.81539 208.668 8.04577 208.765 8.2992C208.861 8.55263 208.904 8.82349 208.889 9.09433C208.913 9.37999 208.878 9.66752 208.785 9.93872C208.692 10.2099 208.544 10.4589 208.35 10.6699C208.156 10.8809 207.92 11.0493 207.657 11.1646C207.395 11.2798 207.111 11.3393 206.825 11.3393C206.538 11.3393 206.255 11.2798 205.992 11.1646C205.73 11.0493 205.494 10.8809 205.3 10.6699C205.106 10.4589 204.958 10.2099 204.865 9.93872C204.772 9.66752 204.736 9.37999 204.76 9.09433C204.747 8.8176 204.793 8.54124 204.895 8.28356C204.996 8.02588 205.152 7.79275 205.35 7.59961C205.549 7.40647 205.786 7.25773 206.047 7.16323C206.307 7.06874 206.585 7.03064 206.861 7.05148Z" fill="#0D0D0D"/>
<path d="M200.892 9.06535C200.732 10.5142 199.979 11.2386 198.733 11.2096C198.454 11.2308 198.173 11.1899 197.911 11.0898C197.65 10.9897 197.413 10.8329 197.22 10.6307C197.026 10.4285 196.879 10.1859 196.79 9.92023C196.701 9.6546 196.672 9.37255 196.705 9.09433C196.686 8.81614 196.728 8.5372 196.829 8.27733C196.93 8.01747 197.088 7.78307 197.29 7.59081C197.491 7.39855 197.733 7.25314 197.998 7.16493C198.262 7.07673 198.543 7.04788 198.82 7.08045C199.088 7.06871 199.355 7.11136 199.606 7.20584C199.857 7.30032 200.086 7.44467 200.28 7.63016C200.474 7.81566 200.628 8.03847 200.733 8.28513C200.838 8.5318 200.892 8.79721 200.892 9.06535Z" fill="#141414"/>
<path d="M195.85 23.5102L195.531 24.2346C195.226 23.7405 195.094 23.1586 195.157 22.5812C195.22 22.0037 195.474 21.4639 195.879 21.0472L196.212 21.4239C196.383 21.7647 196.44 22.1512 196.374 22.5267C196.309 22.9022 196.125 23.2469 195.85 23.5102Z" fill="#383838"/>
<path d="M200.732 34.1736C200.721 34.5428 200.637 34.9061 200.486 35.2428C200.334 35.5796 200.117 35.8831 199.848 36.136C199.579 36.389 199.263 36.5864 198.917 36.7171C198.572 36.8477 198.204 36.909 197.835 36.8974C197.463 36.894 197.096 36.8154 196.756 36.6664C196.415 36.5173 196.109 36.3009 195.854 36.0301C195.6 35.7594 195.403 35.4399 195.275 35.091C195.147 34.742 195.091 34.3708 195.111 33.9997C195.122 33.6349 195.206 33.276 195.359 32.9446C195.512 32.6132 195.73 32.3161 196.001 32.0712C196.272 31.8263 196.589 31.6386 196.934 31.5194C197.279 31.4001 197.644 31.3518 198.009 31.3774C198.738 31.3962 199.43 31.6992 199.939 32.2215C200.448 32.7439 200.733 33.4444 200.732 34.1736Z" fill="#0D0D0D"/>
<path d="M210.222 34.1736C210.222 34.9114 209.929 35.6189 209.407 36.1406C208.886 36.6623 208.178 36.9554 207.44 36.9554C206.703 36.9554 205.995 36.6623 205.473 36.1406C204.952 35.6189 204.659 34.9114 204.659 34.1736C204.659 33.4358 204.952 32.7283 205.473 32.2066C205.995 31.6849 206.703 31.3918 207.44 31.3918C208.178 31.3918 208.886 31.6849 209.407 32.2066C209.929 32.7283 210.222 33.4358 210.222 34.1736Z" fill="#0F0F0F"/>
<path d="M306.512 15.9473C309.105 14.9621 309.105 14.9621 308.641 17.8453C308.444 19.5009 307.776 21.0651 306.714 22.3511C301.672 16.6427 292.226 15.1794 285.388 22.3511C283.91 20.1707 283.253 17.5374 283.533 14.9186C284.554 15.5664 285.718 15.9528 286.923 16.0438C288.129 16.1347 289.338 15.9274 290.444 15.4402C290.792 15.2663 290.908 15.4402 290.951 15.759C290.241 16.947 289.039 16.8745 287.909 16.947C286.845 16.9982 285.779 16.9154 284.736 16.7007C284.658 16.8815 284.618 17.0762 284.618 17.273C284.618 17.4698 284.658 17.6645 284.736 17.8453C285.228 20.6415 285.446 20.7429 287.764 19.1347C290.312 17.3076 293.385 16.3566 296.52 16.4246C299.654 16.4925 302.683 17.5757 305.15 19.5114C305.628 19.8591 306.135 20.9603 306.946 19.8881C307.356 19.4101 307.582 18.8011 307.582 18.1713C307.582 17.5414 307.356 16.9324 306.946 16.4544C306.685 16.3819 306.497 16.2516 306.512 15.9473Z" fill="#1C1C1C"/>
<path d="M298.847 9.54346C298.845 8.45541 299.166 7.39121 299.771 6.48661C300.375 5.58201 301.236 4.87801 302.242 4.46442C303.248 4.05083 304.355 3.94638 305.421 4.16441C306.487 4.38244 307.464 4.91305 308.227 5.68857C308.99 6.4641 309.505 7.44937 309.706 8.51872C309.907 9.58808 309.785 10.693 309.355 11.6927C308.926 12.6923 308.208 13.5413 307.294 14.1313C306.38 14.7213 305.31 15.0257 304.222 15.0056C302.788 14.9865 301.418 14.4021 300.412 13.3795C299.406 12.3568 298.843 10.9783 298.847 9.54346Z" fill="#0C0C0C"/>
<path d="M282.461 10.3113C282.379 9.248 282.571 8.18142 283.017 7.2128C283.463 6.24418 284.15 5.40566 285.011 4.77681C289.039 3.13963 292.777 4.77681 293.327 8.60172C293.564 9.98528 293.258 11.407 292.473 12.5704C291.687 13.7338 290.483 14.549 289.111 14.8462C285.938 15.4982 283.432 13.7885 282.461 10.3113Z" fill="#070707"/>
<path d="M306.512 15.9473L306.99 16.2805C306.758 16.9905 306.12 16.947 305.541 17.0049C304.175 17.1645 302.791 16.9536 301.535 16.3945C300.279 15.8353 299.196 14.9484 298.4 13.8269C297.605 12.7053 297.126 11.3903 297.013 10.0198C296.9 8.64923 297.159 7.27367 297.761 6.03729C298.398 4.71886 298.137 4.13932 297.022 3.57428C297.152 2.87884 297.819 3.37144 298.123 3.06719C298.239 3.05994 298.355 3.05994 298.471 3.06719C300.542 3.5453 300.542 3.5453 299.311 5.24044C298.523 6.34884 298.076 7.66318 298.024 9.02211C297.973 10.381 298.319 11.7254 299.021 12.8903C299.79 14.1222 300.928 15.0806 302.272 15.6294C303.617 16.1782 305.1 16.2894 306.512 15.9473Z" fill="#202020"/>
<path d="M298.485 20.7429C299.499 22.3511 299.47 23.6406 298.326 24.7852C297.855 25.3079 297.211 25.6418 296.512 25.7244C295.814 25.807 295.109 25.6329 294.53 25.2343C293.904 24.9131 293.421 24.3687 293.177 23.7088C292.933 23.0489 292.945 22.3215 293.211 21.6702C293.776 20.0475 294.979 19.4535 297.094 19.7287C297.167 20.1779 296.819 20.2793 296.515 20.4242C296.012 20.5431 295.525 20.7231 295.066 20.9603C294.664 21.1923 294.361 21.5646 294.217 22.0058C294.073 22.447 294.096 22.926 294.283 23.3508C294.399 23.7735 294.664 24.14 295.029 24.3825C295.393 24.6249 295.834 24.7268 296.268 24.6693C296.731 24.6188 297.16 24.4064 297.481 24.0697C297.802 23.7329 297.993 23.2935 298.021 22.8292C298.108 22.2642 297.891 21.6992 297.949 21.1196C298.036 20.8733 298.166 20.6705 298.485 20.7429Z" fill="#1E1E1E"/>
<path d="M298.152 3.06719C297.848 3.4294 297.398 3.31349 297.022 3.40042C296.389 3.80153 295.655 4.01273 294.906 4.00893C293.965 4.18279 293.747 4.55948 294.254 5.45776C294.952 6.70042 295.259 8.12379 295.138 9.54346C295.138 10.094 295.138 10.7025 294.573 11.0792C294.052 10.9199 294.182 10.5287 294.269 10.1665C294.363 9.15649 294.242 8.13796 293.912 7.17867C293.582 6.21937 293.052 5.34132 292.356 4.60295C291.487 3.73365 291.98 3.5453 292.835 3.31349C294.572 2.86993 296.381 2.78611 298.152 3.06719Z" fill="#181818"/>
<path d="M296.631 27.48C295.703 27.3931 294.834 27.3206 293.979 27.1902C293.675 27.1902 293.211 27.0743 293.356 26.5817C293.501 26.0891 293.805 26.263 294.081 26.3354C295.778 26.7268 297.541 26.7268 299.238 26.3354C299.499 26.3354 299.847 26.3354 299.89 26.6831C299.934 27.0309 299.586 27.1757 299.325 27.2047C298.413 27.3061 297.5 27.3931 296.631 27.48Z" fill="#1B1B1B"/>
<path d="M294.269 10.1665L294.617 10.9923C294.679 12.1162 294.331 13.2245 293.639 14.1117C292.946 14.9989 291.955 15.6047 290.85 15.8169L290.444 15.4837C291.421 14.9175 292.267 14.1511 292.926 13.2346C293.585 12.3181 294.043 11.2725 294.269 10.1665Z" fill="#313131"/>
<path d="M302.658 24.0318C302.602 23.9895 302.558 23.9349 302.527 23.8724C301.774 23.177 302.324 22.6989 302.817 22.2352C303.31 21.7716 303.744 22.0034 304.136 22.4091C304.527 22.8148 304.816 23.3943 304.382 23.8579C304.299 24.0063 304.181 24.1325 304.039 24.2257C303.897 24.319 303.734 24.3766 303.565 24.3937C303.396 24.4107 303.225 24.3867 303.067 24.3237C302.909 24.2607 302.769 24.1606 302.658 24.0318Z" fill="#F4F4F4"/>
<path d="M289.43 22.1048C290.632 22.3801 290.401 23.2639 290.067 23.9593C289.984 24.1327 289.863 24.2855 289.713 24.4067C289.564 24.5278 289.389 24.6144 289.202 24.6601C289.015 24.7058 288.82 24.7095 288.632 24.671C288.443 24.6325 288.266 24.5528 288.111 24.4375C287.935 24.3615 287.778 24.2467 287.653 24.1016C287.527 23.9566 287.436 23.7851 287.386 23.5998C287.336 23.4146 287.328 23.2204 287.363 23.0318C287.399 22.8432 287.476 22.665 287.59 22.5105C288.053 21.8151 288.647 21.3659 289.459 22.1338L289.227 22.3656C288.966 22.6264 288.488 22.7423 288.604 23.2494C288.611 23.2899 288.627 23.3282 288.652 23.3611C288.676 23.3941 288.708 23.4209 288.745 23.4392C288.781 23.4576 288.822 23.467 288.863 23.4668C288.904 23.4665 288.944 23.4566 288.981 23.4378C289.444 23.2349 289.242 22.7713 289.328 22.4091C289.342 22.3021 289.377 22.1988 289.43 22.1048Z" fill="#585858"/>
<path d="M302.658 24.0318C303.223 24.2346 303.773 24.3505 304.208 23.7565C304.319 23.6222 304.386 23.4566 304.399 23.2827C304.412 23.1088 304.371 22.9351 304.28 22.7858C304.034 22.3946 303.701 21.9889 303.165 22.2063C302.995 22.2483 302.837 22.3309 302.706 22.447C302.575 22.563 302.473 22.7091 302.411 22.8728C302.348 23.0365 302.326 23.2128 302.346 23.3869C302.367 23.561 302.429 23.7275 302.527 23.8724C301.499 23.3943 301.89 22.7278 302.397 22.1918C302.515 22.0438 302.665 21.9244 302.835 21.8423C303.006 21.7602 303.193 21.7175 303.382 21.7175C303.571 21.7175 303.758 21.7602 303.929 21.8423C304.099 21.9244 304.249 22.0438 304.367 22.1918C304.529 22.3147 304.661 22.4735 304.751 22.6558C304.842 22.838 304.889 23.0387 304.889 23.2422C304.889 23.4456 304.842 23.6463 304.751 23.8286C304.661 24.0108 304.529 24.1696 304.367 24.2926C303.802 24.7272 303.063 25.0604 302.658 24.0318Z" fill="#5A5A5A"/>
<path d="M298.485 20.7429L298.152 21.0907C297.78 21.1667 297.394 21.1078 297.062 20.9246C296.73 20.7413 296.474 20.4458 296.341 20.091C296.602 19.975 296.949 20.091 297.094 19.7287C297.388 19.7805 297.666 19.8988 297.907 20.0746C298.148 20.2504 298.346 20.479 298.485 20.7429Z" fill="#434343"/>
<path d="M119.062 15.4837C119.062 15.8729 118.984 16.2582 118.832 16.6165C118.68 16.9748 118.457 17.2989 118.178 17.5693C117.898 17.8398 117.566 18.0511 117.203 18.1906C116.839 18.3301 116.452 18.395 116.063 18.3813C115.294 18.3813 114.557 18.076 114.014 17.5326C113.47 16.9892 113.165 16.2522 113.165 15.4837C113.157 15.0857 113.229 14.6901 113.377 14.3203C113.524 13.9506 113.744 13.614 114.023 13.3305C114.303 13.047 114.636 12.8222 115.004 12.6695C115.372 12.5168 115.766 12.4391 116.164 12.4411C116.943 12.4853 117.676 12.8243 118.215 13.3894C118.753 13.9545 119.056 14.7033 119.062 15.4837Z" fill="#0B0B0B"/>
<path d="M101.458 12.4411C102.241 12.482 102.979 12.822 103.518 13.391C104.057 13.9599 104.357 14.7143 104.356 15.4982C104.347 15.8933 104.259 16.2826 104.097 16.6433C103.936 17.0039 103.704 17.3287 103.415 17.5986C103.126 17.8684 102.786 18.078 102.416 18.2149C102.045 18.3518 101.65 18.4133 101.256 18.3958C100.502 18.3732 99.7874 18.058 99.2626 17.517C98.7379 16.976 98.4445 16.2518 98.4449 15.4982C98.4223 15.0945 98.4844 14.6906 98.6273 14.3123C98.7702 13.9341 98.9906 13.59 99.2744 13.3021C99.5583 13.0141 99.8992 12.7888 100.275 12.6405C100.651 12.4922 101.054 12.4243 101.458 12.4411Z" fill="#090909"/>
<path d="M108.674 11.8471C108.154 11.8415 107.641 11.7329 107.164 11.5276C106.687 11.3223 106.255 11.0244 105.894 10.6511C105.533 10.2779 105.25 9.83665 105.06 9.35305C104.871 8.86946 104.779 8.35309 104.791 7.83384C104.787 7.31402 104.887 6.79864 105.084 6.31781C105.282 5.83699 105.573 5.40037 105.941 5.03346C106.31 4.66656 106.747 4.37673 107.229 4.18092C107.711 3.9851 108.226 3.88723 108.746 3.89302C109.281 3.8949 109.811 4.00267 110.304 4.2101C110.798 4.41754 111.245 4.72055 111.621 5.10167C111.996 5.4828 112.293 5.93451 112.493 6.43077C112.694 6.92704 112.794 7.45805 112.788 7.99322C112.729 9.04116 112.268 10.026 111.502 10.7435C110.736 11.4611 109.723 11.8562 108.674 11.8471Z" fill="#1B1B1B"/>
<path d="M108.761 18.9609C109.804 18.9782 110.801 19.3924 111.549 20.1192C112.297 20.846 112.741 21.8307 112.788 22.8727C112.758 23.9693 112.297 25.0097 111.505 25.769C110.713 26.5282 109.655 26.9451 108.558 26.9294C107.524 26.859 106.557 26.3943 105.856 25.6313C105.155 24.8683 104.774 23.8652 104.791 22.8292C104.81 21.7916 105.237 20.8034 105.981 20.0792C106.724 19.3549 107.723 18.9531 108.761 18.9609Z" fill="#191919"/>
<path d="M20.3529 13.4698C19.8767 13.4699 19.4054 13.375 18.9664 13.1906C18.5275 13.0063 18.1297 12.7362 17.7964 12.3962C17.4632 12.0561 17.2011 11.653 17.0256 11.2105C16.85 10.7679 16.7646 10.2948 16.7742 9.81874C16.7772 9.09767 16.9945 8.39376 17.3984 7.79646C17.8024 7.19915 18.3748 6.73542 19.0429 6.46419C19.711 6.19296 20.4447 6.12648 21.1507 6.27319C21.8567 6.4199 22.5031 6.77319 23.0079 7.28815C23.5126 7.80311 23.8529 8.45649 23.9854 9.16529C24.1179 9.87408 24.0368 10.6063 23.7522 11.2688C23.4676 11.9314 22.9925 12.4944 22.3872 12.8863C21.782 13.2782 21.0738 13.4813 20.3529 13.4698Z" fill="#242424"/>
<path d="M9.31276 13.4553C8.83707 13.4669 8.36376 13.3846 7.91988 13.2131C7.476 13.0417 7.07025 12.7845 6.72581 12.4562C6.38136 12.1279 6.10498 11.735 5.91246 11.2998C5.71993 10.8647 5.61503 10.3959 5.60375 9.92016C5.59609 9.42997 5.68531 8.94308 5.86628 8.48745C6.04725 8.03182 6.31642 7.61642 6.65834 7.26508C7.00026 6.91373 7.4082 6.63337 7.85874 6.44008C8.30928 6.24679 8.79356 6.14437 9.28378 6.13871C10.2445 6.15395 11.1606 6.54733 11.8332 7.23351C12.5058 7.9197 12.8808 8.84339 12.8769 9.80425C12.8885 10.2796 12.8049 10.7524 12.6309 11.1949C12.457 11.6374 12.1963 12.0406 11.8642 12.3809C11.5321 12.7211 11.1353 12.9914 10.6971 13.1759C10.2589 13.3605 9.78821 13.4555 9.31276 13.4553Z" fill="#232323"/>
<path d="M14.7459 19.2941C15.7079 19.2864 16.6338 19.6601 17.3208 20.3336C18.0078 21.007 18.4 21.9252 18.4114 22.8872C18.4766 23.4013 18.4316 23.9234 18.2793 24.4188C18.1271 24.9141 17.8712 25.3714 17.5285 25.7602C17.1859 26.149 16.7644 26.4604 16.2921 26.6737C15.8199 26.887 15.3076 26.9973 14.7893 26.9973C14.2711 26.9973 13.7588 26.887 13.2865 26.6737C12.8143 26.4604 12.3928 26.149 12.0502 25.7602C11.7075 25.3714 11.4516 24.9141 11.2994 24.4188C11.1471 23.9234 11.1021 23.4013 11.1673 22.8872C11.1785 21.9402 11.5586 21.035 12.2269 20.364C12.8953 19.693 13.799 19.3091 14.7459 19.2941Z" fill="#202020"/>
<path d="M9.58804 18.3668C9.5367 18.9137 9.27886 19.4204 8.86701 19.7838C8.45517 20.1472 7.9203 20.3399 7.37133 20.3228C7.06785 20.329 6.76632 20.2729 6.48543 20.1579C6.20453 20.0429 5.95025 19.8714 5.73835 19.654C5.52645 19.4367 5.36144 19.1781 5.25356 18.8944C5.14567 18.6107 5.0972 18.3079 5.11115 18.0046C5.09624 17.7128 5.14323 17.4212 5.24903 17.1488C5.35482 16.8764 5.51703 16.6295 5.72501 16.4243C5.93299 16.219 6.18202 16.0601 6.45577 15.9579C6.72952 15.8557 7.02178 15.8126 7.31337 15.8314C7.63675 15.8245 7.9578 15.8876 8.25456 16.0162C8.55131 16.1449 8.81677 16.3362 9.03277 16.5769C9.24877 16.8177 9.41021 17.1023 9.50604 17.4112C9.60188 17.7201 9.62985 18.0461 9.58804 18.3668Z" fill="#1D1D1D"/>
<path d="M24.5545 17.8887C24.5752 18.21 24.5279 18.5321 24.4157 18.8339C24.3035 19.1357 24.1289 19.4104 23.9033 19.6401C23.6776 19.8698 23.4061 20.0494 23.1064 20.167C22.8067 20.2846 22.4855 20.3377 22.1639 20.3228C21.8727 20.3156 21.586 20.2496 21.321 20.1287C21.0559 20.0078 20.8181 19.8345 20.6219 19.6193C20.4256 19.4041 20.2749 19.1513 20.1789 18.8763C20.0828 18.6013 20.0435 18.3098 20.0631 18.0191C20.062 17.7153 20.1241 17.4145 20.2457 17.136C20.3672 16.8575 20.5454 16.6074 20.769 16.4016C20.9925 16.1957 21.2565 16.0388 21.544 15.9406C21.8316 15.8424 22.1364 15.8052 22.4392 15.8314C22.9892 15.8348 23.5166 16.0509 23.9108 16.4344C24.3051 16.8179 24.5358 17.339 24.5545 17.8887Z" fill="#141414"/>
<path d="M241.778 22.5829C241.098 22.5811 240.425 22.4448 239.798 22.182C239.171 21.9193 238.603 21.5352 238.125 21.0518C237.647 20.5684 237.269 19.9953 237.013 19.3655C236.757 18.7356 236.629 18.0614 236.634 17.3816C236.605 16.6765 236.719 15.9727 236.97 15.3131C237.221 14.6535 237.603 14.0518 238.094 13.5448C238.585 13.0377 239.174 12.6359 239.825 12.3637C240.476 12.0915 241.176 11.9547 241.882 11.9616C242.588 11.9685 243.285 12.1189 243.93 12.4038C244.576 12.6886 245.157 13.1019 245.638 13.6184C246.119 14.1349 246.49 14.744 246.728 15.4084C246.966 16.0728 247.066 16.7786 247.023 17.4831C247 18.8537 246.435 20.1595 245.452 21.1151C244.47 22.0707 243.148 22.5985 241.778 22.5829Z" fill="#151515"/>
<path d="M262.38 15.136C262.898 16.5343 262.924 18.0676 262.453 19.4824C261.975 20.5557 261.146 21.434 260.102 21.972C259.058 22.5101 257.862 22.6756 256.711 22.4413C255.56 22.207 254.523 21.5869 253.773 20.6835C253.022 19.7801 252.602 18.6475 252.582 17.4731C252.563 16.2987 252.945 15.1528 253.665 14.2249C254.385 13.2969 255.4 12.6426 256.543 12.3701C257.685 12.0975 258.887 12.2231 259.948 12.7261C261.01 13.229 261.867 14.0792 262.38 15.136Z" fill="#080808"/>
<path d="M246.313 25.6834C246.316 25.2066 246.415 24.7353 246.603 24.297C246.79 23.8587 247.063 23.4621 247.406 23.1303C247.748 22.7986 248.154 22.5384 248.598 22.3648C249.042 22.1912 249.516 22.1078 249.993 22.1193C250.957 22.1488 251.873 22.5468 252.552 23.2314C253.231 23.9161 253.622 24.8352 253.644 25.7994C253.585 26.7618 253.164 27.6662 252.465 28.3303C251.766 28.9944 250.841 29.3688 249.877 29.378C249.399 29.3724 248.928 29.272 248.489 29.0827C248.051 28.8934 247.654 28.619 247.323 28.2753C246.991 27.9317 246.731 27.5256 246.558 27.0807C246.384 26.6358 246.301 26.1608 246.313 25.6834Z" fill="#0D0D0D"/>
<path d="M252.007 9.26819C251.992 9.73067 251.843 10.1788 251.576 10.5569C251.309 10.935 250.937 11.2264 250.506 11.3949C250.075 11.5635 249.604 11.6017 249.152 11.5049C248.699 11.4081 248.285 11.1805 247.961 10.8503C247.637 10.5202 247.417 10.1021 247.328 9.648C247.24 9.19387 247.286 8.7237 247.463 8.29589C247.639 7.86807 247.937 7.50146 248.32 7.2416C248.703 6.98173 249.153 6.84005 249.616 6.83415C250.255 6.84179 250.865 7.10207 251.313 7.55813C251.761 8.01419 252.01 8.62897 252.007 9.26819Z" fill="#282828"/>
<path d="M249.848 17.2657C249.207 17.2587 248.593 17.0048 248.134 16.5569C247.676 16.1089 247.407 15.5014 247.385 14.8607C247.392 14.2188 247.652 13.6056 248.107 13.1531C248.562 12.7005 249.177 12.4449 249.819 12.4411C250.437 12.4515 251.028 12.6969 251.473 13.1274C251.917 13.558 252.18 14.1415 252.209 14.7593C252.221 15.4028 251.981 16.0254 251.539 16.4938C251.098 16.9623 250.491 17.2393 249.848 17.2657Z" fill="#262626"/>
<path d="M255.252 11.6877C254.614 11.6363 254.02 11.3442 253.589 10.8707C253.159 10.3972 252.924 9.77767 252.934 9.13779C252.986 8.49993 253.281 7.90644 253.758 7.48027C254.236 7.0541 254.859 6.82794 255.498 6.84864C256.105 6.92067 256.666 7.20689 257.08 7.65578C257.495 8.10466 257.735 8.68672 257.758 9.29716C257.718 9.93801 257.438 10.5402 256.973 10.9833C256.509 11.4265 255.894 11.678 255.252 11.6877Z" fill="#202020"/>
<path d="M246.342 9.32614C246.315 9.96784 246.034 10.5726 245.561 11.0073C245.088 11.442 244.462 11.6712 243.821 11.6443C243.503 11.631 243.191 11.5552 242.902 11.4213C242.614 11.2874 242.355 11.098 242.139 10.8639C241.705 10.3911 241.476 9.76501 241.503 9.1233C241.568 8.51381 241.849 7.94783 242.296 7.52789C242.742 7.10795 243.324 6.86184 243.937 6.83415C244.58 6.86372 245.188 7.13839 245.635 7.60178C246.082 8.06518 246.335 8.68216 246.342 9.32614Z" fill="#212121"/>
<path d="M246.066 25.4806C246.08 26.1223 245.838 26.7431 245.394 27.2063C244.949 27.6696 244.339 27.9374 243.697 27.9509C243.056 27.9643 242.435 27.7223 241.972 27.2781C241.508 26.8338 241.241 26.2237 241.227 25.582C241.23 24.9447 241.479 24.333 241.922 23.8743C242.364 23.4156 242.966 23.1451 243.603 23.119C244.242 23.1111 244.857 23.3542 245.318 23.796C245.779 24.2377 246.047 24.8427 246.066 25.4806Z" fill="#212121"/>
<path d="M256.165 27.2916C255.122 27.1033 254.412 26.5238 254.426 25.4661C254.408 25.2161 254.447 24.9654 254.539 24.7322C254.631 24.499 254.773 24.2893 254.957 24.1185C255.14 23.9476 255.359 23.82 255.598 23.7448C255.838 23.6696 256.09 23.6489 256.339 23.6841C256.575 23.682 256.809 23.7307 257.025 23.827C257.241 23.9232 257.434 24.0647 257.591 24.2419C257.747 24.4191 257.864 24.6279 257.933 24.8541C258.002 25.0803 258.021 25.3186 257.99 25.5531C257.975 26.0245 257.775 26.471 257.434 26.7963C257.092 27.1216 256.636 27.2995 256.165 27.2916Z" fill="#F4F4F4"/>
<path d="M70.41 12.3542C70.8495 12.3542 71.2847 12.4408 71.6908 12.609C72.0968 12.7771 72.4658 13.0237 72.7765 13.3345C73.0873 13.6452 73.3338 14.0142 73.502 14.4202C73.6702 14.8263 73.7568 15.2615 73.7568 15.701C73.7568 16.1405 73.6702 16.5757 73.502 16.9818C73.3338 17.3878 73.0873 17.7568 72.7765 18.0675C72.4658 18.3783 72.0968 18.6248 71.6908 18.793C71.2847 18.9612 70.8495 19.0478 70.41 19.0478C69.5397 19.0308 68.7081 18.6853 68.082 18.0807C67.4559 17.4761 67.0816 16.657 67.0342 15.7879C67.0303 14.8861 67.3829 14.0192 68.0152 13.3761C68.6474 12.7329 69.5082 12.3657 70.41 12.3542Z" fill="#252525"/>
<path d="M53.2993 19.0333C52.8528 19.0221 52.4129 18.9227 52.0049 18.7409C51.5969 18.5591 51.2289 18.2985 50.9219 17.9741C50.6149 17.6496 50.3751 17.2677 50.2162 16.8502C50.0573 16.4328 49.9825 15.9881 49.996 15.5416C50.0248 14.6386 50.4111 13.7841 51.07 13.1659C51.7289 12.5478 52.6064 12.2167 53.5094 12.2455C54.4124 12.2744 55.2669 12.6607 55.8851 13.3196C56.5032 13.9785 56.8343 14.856 56.8055 15.759C56.7905 16.2042 56.6879 16.6422 56.5036 17.0479C56.3192 17.4535 56.0567 17.8188 55.7311 18.1229C55.4054 18.427 55.0231 18.6639 54.6058 18.8201C54.1885 18.9764 53.7446 19.0488 53.2993 19.0333Z" fill="#212121"/>
<path d="M61.9198 12.3397C62.3652 12.3297 62.808 12.4104 63.2212 12.5767C63.6345 12.743 64.0097 12.9915 64.324 13.3072C64.6383 13.6229 64.8852 13.9991 65.0498 14.4131C65.2143 14.8271 65.293 15.2702 65.2811 15.7155C65.2783 16.3797 65.0787 17.0281 64.7076 17.579C64.3365 18.1298 63.8106 18.5584 63.1961 18.8106C62.5817 19.0627 61.9063 19.1273 61.2552 18.9959C60.6042 18.8646 60.0066 18.5433 59.538 18.0727C59.0693 17.602 58.7506 17.0031 58.6221 16.3514C58.4936 15.6998 58.561 15.0247 58.8158 14.4114C59.0706 13.798 59.5015 13.2739 60.0539 12.9052C60.6064 12.5365 61.2557 12.3397 61.9198 12.3397Z" fill="#212121"/>
<path d="M69.4683 22.9017C69.4939 23.5648 69.3218 24.2206 68.9738 24.7857C68.6259 25.3508 68.1178 25.7997 67.5141 26.0753C66.9104 26.351 66.2384 26.4409 65.5835 26.3338C64.9286 26.2266 64.3203 25.9271 63.836 25.4735C63.3516 25.0198 63.0131 24.4324 62.8634 23.7858C62.7137 23.1393 62.7596 22.4629 62.9952 21.8425C63.2309 21.2221 63.6456 20.6858 64.1868 20.3017C64.728 19.9176 65.3711 19.703 66.0345 19.6853C66.4729 19.6639 66.9111 19.7308 67.3231 19.8821C67.7351 20.0334 68.1125 20.266 68.4328 20.566C68.7531 20.8661 69.0098 21.2275 69.1877 21.6287C69.3656 22.0299 69.461 22.4628 69.4683 22.9017Z" fill="#222222"/>
<path d="M57.7762 19.6853C58.2155 19.6833 58.6509 19.7687 59.057 19.9364C59.4632 20.1041 59.8319 20.3508 60.1419 20.6621C60.4519 20.9735 60.697 21.3433 60.8629 21.7501C61.0289 22.157 61.1123 22.5927 61.1085 23.0321C61.0425 23.8836 60.6549 24.678 60.0243 25.254C59.3938 25.8301 58.5677 26.1445 57.7137 26.1334C56.8597 26.1223 56.042 25.7866 55.4266 25.1945C54.8112 24.6023 54.4443 23.7981 54.4004 22.9452C54.4041 22.5083 54.4948 22.0765 54.6672 21.6751C54.8396 21.2737 55.0903 20.9106 55.4045 20.6072C55.7188 20.3037 56.0904 20.0658 56.4976 19.9076C56.9048 19.7493 57.3394 19.6737 57.7762 19.6853Z" fill="#212121"/>
<path d="M65.8027 7.03699C67.1501 7.12392 67.9904 7.70345 68.0484 9.03637C68.0598 9.30845 68.0175 9.58011 67.924 9.83585C67.8304 10.0916 67.6873 10.3264 67.503 10.5268C67.1308 10.9317 66.613 11.1721 66.0635 11.1951C65.7914 11.2065 65.5198 11.1643 65.264 11.0707C65.0083 10.9771 64.7735 10.8341 64.573 10.6498C64.1682 10.2775 63.9278 9.75972 63.9047 9.21023C63.8789 8.94136 63.9082 8.67004 63.9909 8.41288C64.0735 8.15573 64.2078 7.91816 64.3855 7.71471C64.5632 7.51126 64.7805 7.34621 65.0242 7.22968C65.2679 7.11315 65.5328 7.04758 65.8027 7.03699Z" fill="#121212"/>
<path d="M55.7768 8.99291C55.7832 8.71781 55.8467 8.44705 55.9633 8.1978C56.0799 7.94856 56.247 7.72628 56.4541 7.54508C56.6612 7.36388 56.9037 7.22772 57.1662 7.14524C57.4287 7.06276 57.7055 7.03576 57.979 7.06596C58.2578 7.05262 58.5361 7.10093 58.7941 7.20745C59.0521 7.31397 59.2834 7.47609 59.4716 7.68224C59.6597 7.8884 59.8001 8.13351 59.8827 8.40013C59.9653 8.66675 59.9881 8.9483 59.9494 9.22472C59.9602 9.50472 59.9097 9.78369 59.8016 10.0422C59.6935 10.3007 59.5303 10.5325 59.3234 10.7215C59.1165 10.9104 58.8709 11.052 58.6037 11.1363C58.3364 11.2206 58.0541 11.2456 57.7762 11.2096C57.495 11.209 57.217 11.1495 56.9602 11.035C56.7033 10.9205 56.4733 10.7534 56.285 10.5446C56.0966 10.3358 55.9541 10.0898 55.8666 9.82256C55.779 9.55531 55.7485 9.27269 55.7768 8.99291Z" fill="#111111"/>
<path d="M152.689 22.6844C152.701 22.2674 152.799 21.8574 152.977 21.4799C153.154 21.1023 153.407 20.7653 153.72 20.4897C154.033 20.2141 154.4 20.0059 154.797 19.8779C155.194 19.7499 155.613 19.7049 156.028 19.7457C156.443 19.7865 156.846 19.9123 157.21 20.1152C157.574 20.318 157.893 20.5936 158.147 20.9249C158.4 21.2562 158.583 21.6361 158.683 22.041C158.784 22.4458 158.8 22.867 158.731 23.2784C158.603 24.0385 158.191 24.7218 157.579 25.1901C156.967 25.6585 156.2 25.877 155.433 25.8016C154.666 25.7262 153.956 25.3624 153.446 24.7838C152.937 24.2052 152.667 23.4548 152.689 22.6844Z" fill="#FBFBFB"/>
<path d="M161.281 12.8468C160.481 12.8468 159.715 12.5293 159.15 11.9641C158.585 11.399 158.267 10.6325 158.267 9.83323C158.267 9.03398 158.585 8.26747 159.15 7.70232C159.715 7.13716 160.481 6.81966 161.281 6.81966C161.684 6.7912 162.089 6.8475 162.469 6.98493C162.85 7.12237 163.197 7.3379 163.489 7.61765C163.781 7.89741 164.011 8.2352 164.165 8.6093C164.319 8.98339 164.392 9.3855 164.381 9.78977C164.405 10.2012 164.341 10.6129 164.193 10.9975C164.045 11.3821 163.816 11.7306 163.523 12.02C163.229 12.3093 162.878 12.5327 162.491 12.6753C162.104 12.8179 161.692 12.8763 161.281 12.8468Z" fill="#FCFCFC"/>
<path d="M153.182 9.77528C153.21 10.3793 153.058 10.9781 152.745 11.4953C152.432 12.0125 151.972 12.4246 151.423 12.6791C150.875 12.9336 150.263 13.0189 149.666 12.9241C149.068 12.8293 148.513 12.5588 148.07 12.1469C147.628 11.7351 147.318 11.2007 147.18 10.6119C147.042 10.0231 147.083 9.40667 147.297 8.84123C147.512 8.2758 147.89 7.78702 148.383 7.43727C148.876 7.08753 149.462 6.89269 150.067 6.87761C150.462 6.86016 150.857 6.92159 151.229 7.05832C151.601 7.19505 151.941 7.40435 152.231 7.67403C152.521 7.94371 152.754 8.26838 152.918 8.62913C153.081 8.98987 153.171 9.37949 153.182 9.77528Z" fill="#FCFCFC"/>
<path d="M163.208 19.439C163.012 19.4623 162.813 19.4408 162.627 19.3763C162.44 19.3117 162.271 19.2057 162.132 19.0662C161.992 18.9267 161.886 18.7574 161.822 18.571C161.757 18.3846 161.736 18.186 161.759 17.9902C161.854 17.7003 162.038 17.4479 162.286 17.269C162.533 17.09 162.83 16.9937 163.135 16.9937C163.44 16.9937 163.738 17.09 163.985 17.269C164.232 17.4479 164.416 17.7003 164.512 17.9902C164.528 18.1723 164.506 18.3557 164.448 18.5291C164.39 18.7025 164.297 18.8621 164.174 18.998C164.052 19.1338 163.903 19.2431 163.737 19.319C163.571 19.3949 163.39 19.4357 163.208 19.439Z" fill="#EFEFEF"/>
<path d="M149.676 18.1061C149.458 18.9754 149.009 19.5549 148.111 19.4245C147.931 19.4224 147.753 19.3816 147.59 19.305C147.427 19.2284 147.282 19.1178 147.165 18.9804C147.049 18.8431 146.963 18.6824 146.913 18.5091C146.864 18.3357 146.852 18.1538 146.879 17.9757C146.862 17.7842 146.888 17.5914 146.956 17.4116C147.024 17.2318 147.132 17.0696 147.271 16.9373C147.41 16.8049 147.578 16.7057 147.761 16.6472C147.944 16.5887 148.138 16.5723 148.328 16.5993C149.154 16.6862 149.574 17.3237 149.676 18.1061Z" fill="#EFEFEF"/>
<path d="M152.906 34.0722C152.791 35.2892 152.168 36.0426 150.922 36.0281C150.673 36.045 150.424 36.0088 150.19 35.9218C149.957 35.8348 149.745 35.699 149.568 35.5235C149.391 35.348 149.253 35.1369 149.165 34.9041C149.076 34.6713 149.038 34.4223 149.053 34.1736C149.025 33.91 149.057 33.6437 149.146 33.394C149.234 33.1443 149.378 32.9175 149.565 32.7302C149.752 32.5428 149.979 32.3996 150.229 32.3109C150.479 32.2223 150.745 32.1904 151.008 32.2177C151.256 32.2119 151.501 32.2556 151.732 32.3462C151.962 32.4368 152.171 32.5725 152.348 32.7452C152.525 32.918 152.665 33.1244 152.761 33.3523C152.857 33.5802 152.907 33.8249 152.906 34.0722Z" fill="#F7F7F7"/>
<path d="M160.397 36.0571C160.137 36.0587 159.88 36.0053 159.643 35.9004C159.405 35.7955 159.192 35.6415 159.019 35.4485C158.845 35.2556 158.714 35.028 158.634 34.7808C158.555 34.5336 158.528 34.2723 158.557 34.0142C158.612 33.5329 158.846 33.09 159.213 32.7736C159.58 32.4573 160.053 32.2907 160.537 32.3072C161.021 32.3236 161.481 32.5218 161.826 32.8623C162.17 33.2029 162.374 33.6607 162.396 34.1446C162.408 34.4063 162.363 34.6674 162.265 34.9104C162.168 35.1534 162.019 35.3728 161.83 35.5538C161.641 35.7348 161.415 35.8734 161.168 35.9602C160.921 36.047 160.658 36.08 160.397 36.0571Z" fill="#F2F2F2"/>
<path d="M209.802 22.9307C209.794 23.6621 209.497 24.3607 208.976 24.8738C208.455 25.387 207.752 25.6728 207.02 25.669C206.659 25.681 206.298 25.6188 205.962 25.4864C205.625 25.3539 205.319 25.154 205.063 24.8988C204.806 24.6437 204.604 24.3387 204.47 24.0027C204.336 23.6667 204.272 23.3068 204.282 22.9452C204.278 22.5824 204.346 22.2225 204.482 21.8862C204.618 21.5498 204.818 21.2435 205.073 20.985C205.327 20.7265 205.63 20.5209 205.965 20.3799C206.299 20.2388 206.658 20.1653 207.02 20.1634C207.747 20.1918 208.436 20.492 208.951 21.0046C209.466 21.5171 209.77 22.2046 209.802 22.9307Z" fill="#FCFCFC"/>
<path d="M197.023 15.7445C197.026 16.1057 196.955 16.4637 196.814 16.7966C196.674 17.1296 196.467 17.4305 196.207 17.6812C195.947 17.9319 195.639 18.127 195.301 18.2549C194.963 18.3827 194.603 18.4405 194.242 18.4248C193.882 18.4143 193.528 18.3331 193.2 18.1859C192.872 18.0386 192.576 17.8281 192.329 17.5664C192.082 17.3048 191.889 16.997 191.761 16.6608C191.633 16.3246 191.573 15.9664 191.583 15.6068C191.593 15.2472 191.675 14.8932 191.822 14.565C191.969 14.2368 192.18 13.9408 192.441 13.6939C192.703 13.447 193.011 13.2541 193.347 13.1262C193.683 12.9982 194.041 12.9378 194.401 12.9482C194.759 12.9516 195.113 13.0276 195.441 13.1715C195.769 13.3155 196.065 13.5244 196.31 13.7858C196.555 14.0471 196.745 14.3554 196.867 14.692C196.99 15.0287 197.043 15.3867 197.023 15.7445Z" fill="#FAFAFA"/>
<path d="M214.062 15.5996C214.096 15.9667 214.053 16.3369 213.936 16.6866C213.819 17.0362 213.631 17.3577 213.383 17.6304C213.135 17.903 212.832 18.121 212.495 18.2702C212.158 18.4195 211.793 18.4968 211.425 18.4972C211.05 18.5337 210.672 18.4929 210.313 18.3772C209.955 18.2616 209.624 18.0736 209.341 17.825C209.058 17.5763 208.829 17.2722 208.668 16.9316C208.508 16.5909 208.419 16.221 208.407 15.8445C208.395 15.4681 208.46 15.0932 208.599 14.743C208.738 14.3929 208.947 14.075 209.214 13.8089C209.48 13.5429 209.799 13.3344 210.149 13.1963C210.499 13.0582 210.875 12.9935 211.251 13.0062C211.607 12.9887 211.962 13.0422 212.297 13.1636C212.631 13.285 212.939 13.4719 213.2 13.7134C213.462 13.9548 213.673 14.2459 213.821 14.5698C213.969 14.8936 214.051 15.2437 214.062 15.5996Z" fill="#FBFBFB"/>
<path d="M202.848 18.4393C202.118 18.4393 201.417 18.1493 200.901 17.633C200.385 17.1168 200.095 16.4166 200.095 15.6865C200.095 14.9564 200.385 14.2562 200.901 13.74C201.417 13.2238 202.118 12.9337 202.848 12.9337C203.578 12.9337 204.278 13.2238 204.794 13.74C205.31 14.2562 205.6 14.9564 205.6 15.6865C205.6 16.4166 205.31 17.1168 204.794 17.633C204.278 18.1493 203.578 18.4393 202.848 18.4393Z" fill="#FBFBFB"/>
<path d="M195.85 23.5102C195.824 22.7971 195.947 22.0864 196.212 21.4239C197.893 19.8591 199.544 19.7577 200.689 21.1776C201.038 21.5652 201.262 22.0491 201.332 22.566C201.402 23.083 201.314 23.6089 201.08 24.0752C200.88 24.5619 200.535 24.9748 200.092 25.2575C199.648 25.5402 199.128 25.6789 198.603 25.6545C197.963 25.6846 197.334 25.4849 196.829 25.0916C196.325 24.6983 195.977 24.1374 195.85 23.5102Z" fill="#FBFBFB"/>
<path d="M208.136 9.06535C208.02 9.8767 207.629 10.3403 206.89 10.3403C206.73 10.3572 206.569 10.3393 206.417 10.2881C206.265 10.2368 206.125 10.1533 206.008 10.0433C205.891 9.93322 205.8 9.79924 205.739 9.65047C205.679 9.5017 205.651 9.34165 205.658 9.18126C205.637 9.0074 205.656 8.83093 205.713 8.66542C205.77 8.49991 205.865 8.34979 205.99 8.22662C206.114 8.10344 206.265 8.01051 206.431 7.95497C206.598 7.89944 206.774 7.88278 206.948 7.90629C207.701 7.92077 208.02 8.45684 208.136 9.06535Z" fill="#F4F4F4"/>
<path d="M198.559 7.8918C199.443 7.8918 199.921 8.29747 200.008 8.99291C200.037 9.16447 200.027 9.34043 199.978 9.50739C199.929 9.67435 199.842 9.82793 199.725 9.95645C199.607 10.085 199.462 10.185 199.301 10.249C199.139 10.313 198.964 10.3393 198.791 10.3258C198.632 10.341 198.471 10.3212 198.32 10.268C198.17 10.2148 198.032 10.1294 197.918 10.0177C197.803 9.90601 197.715 9.77074 197.658 9.62129C197.601 9.47184 197.577 9.31179 197.588 9.15228C197.559 8.85799 197.643 8.56353 197.823 8.32919C198.004 8.09486 198.267 7.93838 198.559 7.8918Z" fill="#EFEFEF"/>
<path d="M199.863 34.1736C199.863 34.4208 199.814 34.6656 199.718 34.8935C199.622 35.1213 199.481 35.3278 199.305 35.5005C199.128 35.6733 198.918 35.809 198.688 35.8996C198.458 35.9902 198.212 36.0339 197.965 36.0281C197.714 36.0224 197.466 35.9673 197.237 35.8659C197.007 35.7645 196.799 35.6188 196.626 35.4372C196.275 35.0704 196.085 34.5794 196.096 34.0722C196.108 33.565 196.32 33.0831 196.687 32.7326C197.054 32.3821 197.545 32.1917 198.052 32.2032C198.302 32.2086 198.548 32.2644 198.776 32.3674C199.004 32.4703 199.208 32.6183 199.378 32.8023C199.547 32.9864 199.677 33.2027 199.76 33.4384C199.844 33.674 199.879 33.9241 199.863 34.1736Z" fill="#F6F6F6"/>
<path d="M207.571 36.0716C206.238 35.9701 205.514 35.2747 205.514 34.1012C205.555 33.6208 205.776 33.1736 206.131 32.8477C206.486 32.5219 206.951 32.3411 207.433 32.3411C207.915 32.3411 208.38 32.5219 208.735 32.8477C209.091 33.1736 209.311 33.6208 209.353 34.1012C209.367 34.3478 209.331 34.5948 209.249 34.8277C209.166 35.0606 209.039 35.2749 208.873 35.4581C208.707 35.6414 208.507 35.7899 208.283 35.8952C208.06 36.0005 207.818 36.0605 207.571 36.0716Z" fill="#F4F4F4"/>
<path d="M290.85 15.8169C291.814 15.3673 292.658 14.6957 293.313 13.8571C293.967 13.0185 294.414 12.0368 294.617 10.9923C294.894 9.77417 294.87 8.50671 294.547 7.29987C294.224 6.09303 293.611 4.98328 292.762 4.06688C294.132 3.5951 295.574 3.36946 297.022 3.40042L299.514 3.97995C298.279 5.38447 297.541 7.15622 297.413 9.02188C297.349 10.8235 297.947 12.5862 299.094 13.9769C300.004 15.1382 301.255 15.9851 302.671 16.3983C304.088 16.8115 305.598 16.7703 306.99 16.2805L308.221 16.0777C308.192 17.9802 307.694 19.8461 306.772 21.5108C305.426 20.0772 303.805 18.9301 302.005 18.1385C300.205 17.3468 298.264 16.9267 296.297 16.9035C294.306 16.8932 292.334 17.296 290.506 18.0865C288.678 18.877 287.034 20.0381 285.677 21.4963C284.672 19.8314 284.113 17.935 284.055 15.9908C285.127 16.4747 286.296 16.7104 287.472 16.6803C288.649 16.6502 289.803 16.3551 290.85 15.8169Z" fill="#FCFCFC"/>
<path d="M308.975 9.54346C308.975 10.7731 308.486 11.9523 307.617 12.8218C306.747 13.6913 305.568 14.1797 304.338 14.1797C303.108 14.1722 301.93 13.6823 301.058 12.8152C300.186 11.9482 299.688 10.7734 299.673 9.54346C299.673 8.93272 299.793 8.32795 300.027 7.7637C300.261 7.19945 300.603 6.68675 301.035 6.25489C301.467 5.82303 301.98 5.48045 302.544 5.24673C303.108 5.01301 303.713 4.89272 304.324 4.89272C304.935 4.89272 305.539 5.01301 306.104 5.24673C306.668 5.48045 307.181 5.82303 307.612 6.25489C308.044 6.68675 308.387 7.19945 308.621 7.7637C308.854 8.32795 308.975 8.93272 308.975 9.54346Z" fill="#FCFCFC"/>
<path d="M292.574 9.54346C292.609 10.177 292.515 10.8111 292.297 11.407C292.079 12.0028 291.741 12.548 291.305 13.009C290.869 13.47 290.344 13.8372 289.761 14.0882C289.178 14.3391 288.55 14.4686 287.916 14.4686C287.281 14.4686 286.653 14.3391 286.071 14.0882C285.488 13.8372 284.962 13.47 284.526 13.009C284.09 12.548 283.753 12.0028 283.535 11.407C283.317 10.8111 283.222 10.177 283.258 9.54346C283.324 8.35301 283.844 7.23316 284.71 6.41389C285.576 5.59462 286.724 5.13811 287.916 5.13811C289.108 5.13811 290.255 5.59462 291.121 6.41389C291.988 7.23316 292.507 8.35301 292.574 9.54346Z" fill="#FCFCFC"/>
<path d="M296.341 20.091L298.152 21.0907C298.533 21.6425 298.685 22.3204 298.577 22.9823C298.469 23.6441 298.109 24.2383 297.572 24.6403C297.163 24.9745 296.652 25.1571 296.123 25.1571C295.595 25.1571 295.084 24.9745 294.675 24.6403C294.256 24.3757 293.933 23.984 293.753 23.5225C293.573 23.061 293.546 22.554 293.675 22.0759C293.814 21.4838 294.158 20.9599 294.645 20.5967C295.133 20.2335 295.734 20.0544 296.341 20.091Z" fill="#F8F8F8"/>
<path d="M289.43 22.1048C289.59 22.3919 289.712 22.6988 289.792 23.0176C289.831 23.1417 289.843 23.2729 289.825 23.4019C289.808 23.5309 289.763 23.6545 289.692 23.7638C289.621 23.8732 289.528 23.9656 289.417 24.0344C289.307 24.1033 289.182 24.1469 289.053 24.1622C288.825 24.2118 288.587 24.1776 288.382 24.0658C288.177 23.9541 288.019 23.7723 287.938 23.5537C287.648 23.0176 287.938 22.7133 288.314 22.3801C288.691 22.0469 289.082 22.2352 289.459 22.1338L289.43 22.1048Z" fill="#F6F6F6"/>
<path d="M116.164 13.6726C117.41 13.861 117.975 14.5854 117.888 15.6141C117.852 16.0905 117.627 16.533 117.265 16.8441C116.902 17.1552 116.43 17.3095 115.954 17.273C115.478 17.2365 115.035 17.0122 114.724 16.6495C114.413 16.2867 114.259 15.8153 114.295 15.3388C114.298 15.1032 114.35 14.8708 114.447 14.6564C114.545 14.442 114.686 14.2503 114.862 14.0935C115.038 13.9367 115.245 13.8183 115.469 13.7459C115.693 13.6734 115.93 13.6485 116.164 13.6726Z" fill="#F9F9F9"/>
<path d="M103.212 15.5561C103.161 16.0032 102.944 16.4149 102.604 16.7097C102.264 17.0045 101.825 17.1611 101.376 17.1483C100.926 17.1356 100.497 16.9545 100.174 16.6409C99.8518 16.3273 99.6585 15.904 99.6329 15.4547C99.6148 15.2071 99.6527 14.9586 99.7439 14.7276C99.8351 14.4967 99.9771 14.2893 100.159 14.1208C100.342 13.9524 100.56 13.8272 100.797 13.7546C101.035 13.682 101.285 13.6639 101.531 13.7016C102.632 13.7306 103.125 14.426 103.212 15.5561Z" fill="#F9F9F9"/>
<path d="M109.688 4.58846C110.154 4.73708 110.585 4.98135 110.951 5.30565C111.318 5.62996 111.613 6.02718 111.818 6.47194C111.468 6.85383 111.275 7.35258 111.275 7.87006C111.275 8.38755 111.468 8.8863 111.818 9.26819C111.618 9.71169 111.324 10.1062 110.957 10.4241C110.589 10.742 110.156 10.9755 109.688 11.1082C109.413 10.8474 109.456 10.4852 109.413 10.152C109.396 9.99145 109.322 9.84214 109.206 9.73069C109.089 9.61923 108.936 9.55288 108.775 9.54346C108.239 9.54346 108.152 9.92016 108.152 10.3693C108.174 10.5231 108.174 10.6791 108.152 10.8329C108.065 11.0792 107.935 11.2386 107.645 11.1082C106.674 10.5576 105.428 10.2099 105.95 8.64519H106.182C106.529 8.52928 107.022 8.55826 107.08 8.06566C107.138 7.57305 106.587 7.45715 106.182 7.32675H105.95C105.457 5.7765 106.645 5.38532 107.645 4.86374C107.716 4.83375 107.794 4.82601 107.869 4.84154C107.944 4.85707 108.012 4.89514 108.065 4.95067C108.133 5.10073 108.168 5.26392 108.167 5.42878C108.167 5.9069 108.167 6.42848 108.79 6.42848C109.413 6.42848 109.456 6.03729 109.456 5.57367C109.419 5.40256 109.42 5.22527 109.46 5.05479C109.5 4.88431 109.578 4.72498 109.688 4.58846Z" fill="#F7F7F7"/>
<path d="M109.688 4.58846C109.818 4.96796 109.901 5.36215 109.934 5.76201C109.931 5.99464 109.853 6.22013 109.712 6.4053C109.572 6.59048 109.375 6.72556 109.152 6.79069C108.939 6.88979 108.699 6.91219 108.472 6.85408C108.245 6.79596 108.045 6.66092 107.906 6.47194C107.587 6.0228 107.225 5.48674 108.007 5.02311C108.141 5.18327 108.286 5.33338 108.442 5.47225C108.305 5.3139 108.149 5.17281 107.978 5.05209L107.63 4.63193C107.943 4.45402 108.294 4.35687 108.654 4.34928C109.013 4.34169 109.368 4.4239 109.688 4.58846Z" fill="#6A6A6A"/>
<path d="M107.63 10.9923L107.978 10.5866C108.143 10.4532 108.298 10.308 108.442 10.152L107.993 10.6011C107.239 10.1954 107.573 9.65937 107.891 9.15228C108.032 8.96547 108.232 8.83211 108.458 8.77418C108.685 8.71624 108.924 8.73717 109.137 8.83354C109.387 8.91301 109.603 9.07253 109.752 9.28734C109.901 9.50216 109.975 9.76025 109.963 10.0216C109.915 10.3576 109.833 10.6878 109.717 11.0068C109.397 11.1822 109.037 11.2729 108.672 11.2704C108.307 11.2679 107.948 11.1721 107.63 10.9923Z" fill="#6A6A6A"/>
<path d="M111.818 9.26819C111.702 9.16677 111.571 8.97842 111.47 8.97842C110.572 9.07984 109.731 8.97842 109.731 7.86282C109.731 6.74722 110.572 6.6458 111.47 6.76171C111.571 6.76171 111.702 6.57336 111.818 6.47194C112.053 6.90018 112.177 7.38115 112.177 7.87006C112.177 8.35898 112.053 8.83995 111.818 9.26819Z" fill="#646464"/>
<path d="M105.935 8.58724C105.773 8.11793 105.773 7.60772 105.935 7.1384C106.703 6.7762 107.384 6.96454 107.384 7.81936C107.384 8.67417 106.674 8.86251 105.935 8.50031V8.58724Z" fill="#F4F4F4"/>
<path d="M107.717 26.176C107.179 26.0127 106.693 25.7115 106.306 25.3024C105.92 24.8932 105.647 24.3903 105.515 23.8434C105.654 23.7418 105.821 23.6861 105.993 23.6841C106.529 23.6841 107.094 23.6841 107.109 22.9596C107.123 22.2352 106.515 22.2787 106.008 22.2787C105.836 22.2767 105.669 22.221 105.53 22.1193C105.623 21.5025 105.914 20.9325 106.358 20.4939C106.801 20.0554 107.375 19.7718 107.993 19.6853C108.113 19.9379 108.163 20.2181 108.138 20.4966C108.138 20.9603 108.34 21.337 108.804 21.308C109.572 21.2355 109.442 20.6705 109.297 20.1634C109.297 20.0765 109.297 20.004 109.297 19.9171C109.344 19.8546 109.383 19.7865 109.413 19.7143C110.774 19.7143 111.426 20.627 111.934 21.7136C111.934 22.525 111.093 22.0324 110.803 22.4236L110.514 22.7278C110.267 23.3508 110.644 23.5247 111.122 23.6696C111.6 23.8145 111.991 23.5102 111.905 24.2056C111.705 24.7242 111.375 25.1823 110.946 25.5352C110.517 25.8881 110.003 26.1239 109.456 26.2195C109.21 25.9442 109.456 25.669 109.456 25.3792C109.355 24.5534 109.166 23.9304 108.311 24.8721C108.036 25.3067 108.094 25.8283 107.717 26.176Z" fill="#F7F7F7"/>
<path d="M105.53 22.1193C106.211 21.8006 106.978 21.4384 107.5 22.2497C107.67 22.453 107.763 22.7093 107.763 22.9741C107.763 23.2389 107.67 23.4953 107.5 23.6985C107.403 23.8419 107.278 23.9635 107.132 24.0557C106.985 24.1479 106.821 24.2087 106.65 24.2341C106.479 24.2595 106.305 24.2491 106.138 24.2034C105.971 24.1578 105.816 24.0779 105.682 23.9689C105.548 23.8599 105.437 23.7242 105.359 23.5703C105.28 23.4165 105.234 23.2479 105.223 23.0753C105.213 22.9027 105.239 22.7298 105.299 22.5677C105.359 22.4057 105.453 22.2579 105.573 22.1338L105.53 22.1193Z" fill="#5E5E5E"/>
<path d="M109.369 20.0185C110.209 20.3373 110.036 20.9313 109.673 21.4673C109.533 21.6834 109.318 21.84 109.069 21.9069C108.82 21.9737 108.556 21.9462 108.326 21.8296C108.077 21.7583 107.865 21.5932 107.735 21.3688C107.605 21.1445 107.568 20.8785 107.63 20.627C107.717 20.3103 107.839 20.0042 107.993 19.7143C108.471 19.2651 108.949 19.1782 109.442 19.7143C109.476 19.7577 109.494 19.8112 109.494 19.8664C109.494 19.9216 109.476 19.9751 109.442 20.0185C109.278 20.1483 109.127 20.2939 108.992 20.4532C109.128 20.3171 109.254 20.1719 109.369 20.0185Z" fill="#5E5E5E"/>
<path d="M111.89 24.2346C111.499 23.6116 111.006 24.4809 110.557 24.1187C110.108 23.7565 109.731 23.5247 109.731 22.9452C109.731 22.3656 110.021 22.4091 110.398 22.525C110.515 22.6421 110.647 22.7443 110.789 22.8292C110.789 22.4815 110.572 22.4236 110.369 22.2932C110.514 21.0617 111.542 22.2932 111.919 21.7426C112.125 22.1266 112.231 22.5566 112.226 22.9924C112.22 23.4281 112.105 23.8555 111.89 24.2346Z" fill="#6A6A6A"/>
<path d="M109.746 25.5965L109.442 26.2485C108.862 26.2485 108.282 26.4948 107.717 26.176C107.717 25.582 107.384 24.9301 107.906 24.394C108.044 24.447 108.164 24.5373 108.253 24.6548C108.5 25.2633 108.978 25.2198 109.485 25.1184C109.731 25.1908 109.92 25.3067 109.746 25.5965Z" fill="#474747"/>
<path d="M23.4389 9.89118C23.4013 10.6958 23.0462 11.4527 22.4514 11.9959C21.8566 12.5391 21.0707 12.8242 20.2659 12.7888C19.4934 12.7535 18.762 12.4308 18.2152 11.884C17.6684 11.3372 17.3456 10.6057 17.3103 9.83323C17.3103 9.01861 17.6339 8.23736 18.2099 7.66134C18.786 7.08531 19.5672 6.76171 20.3818 6.76171C21.1965 6.76171 21.9777 7.08531 22.5537 7.66134C23.1298 8.23736 23.4534 9.01861 23.4534 9.83323L23.4389 9.89118Z" fill="#FAFAFA"/>
<path d="M12.3263 9.89118C12.2888 10.6958 11.9336 11.4527 11.3388 11.9959C10.744 12.5391 9.95812 12.8242 9.15339 12.7888C8.7412 12.8084 8.3294 12.743 7.9435 12.5969C7.55759 12.4508 7.20581 12.2269 6.90996 11.9393C6.61411 11.6516 6.38048 11.3063 6.22357 10.9246C6.06665 10.543 5.98979 10.1331 5.99775 9.72057C6.0057 9.308 6.0983 8.90146 6.2698 8.52614C6.44131 8.15082 6.68807 7.81473 6.99479 7.53868C7.30151 7.26263 7.66165 7.05252 8.0529 6.92136C8.44415 6.7902 8.85817 6.7408 9.2693 6.7762C9.67624 6.77414 10.0795 6.85375 10.4551 7.01029C10.8307 7.16684 11.1711 7.39715 11.4562 7.68759C11.7412 7.97804 11.9651 8.32271 12.1145 8.70121C12.264 9.07971 12.336 9.48435 12.3263 9.89118Z" fill="#FAFAFA"/>
<path d="M14.7459 25.9442C14.3435 25.9501 13.944 25.875 13.5712 25.7233C13.1985 25.5716 12.86 25.3464 12.5761 25.0611C12.2922 24.7759 12.0687 24.4364 11.9187 24.0629C11.7688 23.6894 11.6955 23.2896 11.7033 22.8872C11.7005 22.2779 11.8789 21.6815 12.216 21.1738C12.553 20.6662 13.0335 20.2703 13.5961 20.0365C14.1588 19.8027 14.7783 19.7415 15.3759 19.8607C15.9734 19.98 16.522 20.2742 16.9519 20.7061C17.3817 21.138 17.6734 21.688 17.7898 22.2861C17.9062 22.8842 17.8421 23.5034 17.6056 24.065C17.3691 24.6266 16.9709 25.1051 16.4617 25.4397C15.9524 25.7744 15.3552 25.95 14.7459 25.9442Z" fill="#FCFCFC"/>
<path d="M8.73323 18.1061C8.58835 18.9319 8.1537 19.468 7.2844 19.41C7.11509 19.4104 6.94752 19.3759 6.79214 19.3087C6.63676 19.2414 6.49692 19.1429 6.38135 19.0191C6.26578 18.8954 6.17697 18.7492 6.12045 18.5896C6.06394 18.43 6.04094 18.2605 6.05289 18.0916C6.0324 17.8963 6.05579 17.6989 6.12135 17.5138C6.18692 17.3287 6.293 17.1606 6.43185 17.0217C6.5707 16.8828 6.73882 16.7768 6.92392 16.7112C7.10902 16.6456 7.30643 16.6222 7.50172 16.6427C7.8581 16.6759 8.1871 16.848 8.41756 17.1219C8.64802 17.3957 8.76142 17.7493 8.73323 18.1061Z" fill="#F4F4F4"/>
<path d="M23.6852 18.135C23.6795 18.3251 23.6332 18.5117 23.5494 18.6823C23.4656 18.853 23.3463 19.0037 23.1995 19.1245C23.0527 19.2453 22.8817 19.3332 22.6981 19.3824C22.5145 19.4317 22.3225 19.4411 22.1349 19.41C21.9576 19.4041 21.7837 19.3605 21.6246 19.282C21.4656 19.2035 21.3251 19.0919 21.2127 18.9548C21.1002 18.8176 21.0183 18.658 20.9725 18.4867C20.9266 18.3153 20.9179 18.1362 20.9469 17.9612C20.9405 17.7838 20.9713 17.6072 21.0371 17.4424C21.103 17.2776 21.2025 17.1284 21.3293 17.0043C21.4562 16.8802 21.6075 16.784 21.7737 16.7217C21.9398 16.6594 22.1171 16.6325 22.2943 16.6427C22.4877 16.6354 22.6805 16.6697 22.8595 16.7436C23.0384 16.8174 23.1994 16.9289 23.3313 17.0705C23.4633 17.2121 23.5633 17.3805 23.6243 17.5642C23.6854 17.7479 23.7061 17.9426 23.6852 18.135Z" fill="#F7F7F7"/>
<path d="M246.11 17.4251C246.109 18.292 245.849 19.1389 245.363 19.857C244.878 20.575 244.188 21.1314 243.384 21.4547C242.58 21.7779 241.697 21.8532 240.849 21.6709C240.002 21.4887 239.228 21.0571 238.628 20.4317C238.027 19.8063 237.628 19.0157 237.48 18.1614C237.333 17.3072 237.444 16.4283 237.8 15.6378C238.156 14.8472 238.74 14.1811 239.477 13.7251C240.214 13.2691 241.071 13.0439 241.937 13.0786C242.498 13.0841 243.053 13.2016 243.568 13.4242C244.083 13.6467 244.549 13.9699 244.937 14.3747C245.326 14.7795 245.63 15.2579 245.831 15.7817C246.032 16.3055 246.127 16.8642 246.11 17.4251Z" fill="#FAFAFA"/>
<path d="M257.686 13.0496C258.814 13.049 259.898 13.487 260.709 14.2711C261.52 15.0551 261.995 16.1238 262.032 17.2512C262.046 17.8305 261.944 18.4066 261.731 18.9457C261.519 19.4848 261.201 19.976 260.796 20.3905C260.391 20.8049 259.907 21.1341 259.373 21.3589C258.839 21.5836 258.265 21.6993 257.686 21.6992C256.541 21.6733 255.451 21.2071 254.641 20.3975C253.831 19.5879 253.365 18.4973 253.339 17.3527C253.351 16.2075 253.814 15.113 254.628 14.3073C255.442 13.5015 256.541 13.0496 257.686 13.0496Z" fill="#FDFDFD"/>
<path d="M252.673 25.6834C252.687 26.0429 252.628 26.4014 252.502 26.7381C252.375 27.0748 252.183 27.3829 251.936 27.6445C251.69 27.9062 251.393 28.116 251.064 28.2619C250.736 28.4078 250.381 28.4867 250.022 28.4942C249.647 28.5098 249.272 28.4494 248.921 28.3166C248.57 28.1839 248.25 27.9814 247.979 27.7216C247.709 27.4617 247.493 27.1497 247.346 26.8044C247.199 26.4591 247.124 26.0877 247.124 25.7124C247.156 24.9887 247.458 24.3033 247.97 23.7911C248.482 23.2788 249.168 22.977 249.891 22.9452C250.622 22.9451 251.323 23.2322 251.843 23.7445C252.363 24.2568 252.662 24.9532 252.673 25.6834Z" fill="#FBFBFB"/>
<path d="M249.572 10.9923C249.344 10.9967 249.118 10.9539 248.907 10.8664C248.696 10.7789 248.506 10.6487 248.348 10.484C248.19 10.3192 248.068 10.1236 247.99 9.90937C247.911 9.69513 247.878 9.46695 247.892 9.23921C247.892 9.00709 247.938 8.77724 248.026 8.56279C248.115 8.34834 248.245 8.15348 248.41 7.98935C248.574 7.82521 248.769 7.69501 248.983 7.60618C249.197 7.51735 249.427 7.47164 249.659 7.47164C249.892 7.47164 250.121 7.51735 250.336 7.60618C250.55 7.69501 250.745 7.82521 250.909 7.98935C251.073 8.15348 251.204 8.34834 251.292 8.56279C251.381 8.77724 251.427 9.00709 251.427 9.23921C251.434 9.48008 251.39 9.7197 251.298 9.94238C251.206 10.165 251.068 10.3657 250.893 10.5313C250.717 10.6968 250.509 10.8234 250.282 10.9029C250.054 10.9824 249.813 11.0128 249.572 10.9923Z" fill="#F5F5F5"/>
<path d="M249.645 16.5993C249.419 16.5993 249.196 16.551 248.99 16.4575C248.785 16.364 248.602 16.2275 248.454 16.0573C248.305 15.887 248.195 15.6869 248.131 15.4705C248.066 15.2541 248.049 15.0264 248.08 14.8027C248.055 14.5726 248.081 14.3397 248.158 14.1213C248.235 13.9029 248.361 13.7048 248.525 13.5418C248.69 13.3788 248.889 13.255 249.108 13.1798C249.327 13.1046 249.56 13.0799 249.79 13.1076C250.035 13.0841 250.283 13.1175 250.514 13.2052C250.745 13.2929 250.952 13.4325 251.12 13.6132C251.288 13.7939 251.413 14.0108 251.483 14.2473C251.554 14.4837 251.57 14.7332 251.528 14.9766C251.47 16.0342 250.79 16.5848 249.645 16.5993Z" fill="#F7F7F7"/>
<path d="M253.629 9.16677C253.624 8.93769 253.667 8.71009 253.757 8.49922C253.847 8.28833 253.98 8.09904 254.149 7.94402C254.318 7.789 254.518 7.67183 254.735 7.60035C254.953 7.52888 255.183 7.50475 255.411 7.52959C255.642 7.50436 255.875 7.53123 256.094 7.60823C256.313 7.68522 256.512 7.81038 256.676 7.97446C256.84 8.13854 256.965 8.33736 257.042 8.55625C257.119 8.77515 257.146 9.00854 257.121 9.23921C257.147 9.48603 257.115 9.7355 257.029 9.96807C256.942 10.2006 256.803 10.41 256.622 10.5798C256.441 10.7496 256.223 10.8752 255.985 10.9467C255.748 11.0183 255.497 11.0339 255.252 10.9923C254.165 10.9923 253.658 10.2679 253.629 9.16677Z" fill="#F5F5F5"/>
<path d="M243.937 10.9923C243.71 11.0066 243.483 10.9733 243.27 10.8945C243.058 10.8157 242.864 10.6932 242.701 10.5348C242.539 10.3764 242.411 10.1858 242.327 9.97507C242.243 9.76438 242.204 9.53838 242.212 9.31165C242.19 9.07098 242.219 8.82835 242.296 8.59926C242.373 8.37017 242.497 8.15964 242.66 7.98113C242.822 7.80261 243.021 7.66002 243.242 7.56246C243.463 7.4649 243.702 7.41451 243.944 7.41451C244.185 7.41451 244.424 7.4649 244.646 7.56246C244.867 7.66002 245.065 7.80261 245.228 7.98113C245.391 8.15964 245.515 8.37017 245.592 8.59926C245.669 8.82835 245.697 9.07098 245.675 9.31165C245.682 9.53909 245.641 9.76537 245.555 9.97608C245.469 10.1868 245.34 10.3773 245.176 10.5354C245.013 10.6936 244.818 10.8159 244.605 10.8945C244.391 10.9732 244.164 11.0065 243.937 10.9923Z" fill="#F7F7F7"/>
<path d="M245.385 25.64C245.384 25.8641 245.337 26.0855 245.245 26.29C245.154 26.4946 245.021 26.6778 244.854 26.8278C244.688 26.9779 244.492 27.0915 244.279 27.1614C244.066 27.2313 243.841 27.2559 243.618 27.2337C243.371 27.2472 243.124 27.2055 242.895 27.1116C242.666 27.0177 242.46 26.874 242.294 26.6908C242.127 26.5077 242.004 26.2897 241.932 26.0528C241.86 25.8159 241.842 25.566 241.879 25.3212C241.874 25.0864 241.921 24.8534 242.016 24.6385C242.111 24.4236 242.251 24.2321 242.428 24.0774C242.605 23.9228 242.813 23.8087 243.039 23.7432C243.264 23.6778 243.502 23.6625 243.734 23.6985C243.976 23.6998 244.215 23.7533 244.434 23.8554C244.654 23.9575 244.848 24.1058 245.005 24.2901C245.162 24.4745 245.277 24.6905 245.343 24.9235C245.408 25.1565 245.423 25.4009 245.385 25.64Z" fill="#F2F2F2"/>
<path d="M73.2062 15.672C73.2091 16.2165 73.0504 16.7495 72.7503 17.2038C72.4502 17.6581 72.0222 18.0131 71.5203 18.2241C71.0184 18.4351 70.4652 18.4925 69.9307 18.3891C69.3961 18.2857 68.9043 18.0261 68.5173 17.6432C68.1302 17.2602 67.8655 16.7711 67.7565 16.2377C67.6474 15.7043 67.699 15.1505 67.9047 14.6464C68.1104 14.1424 68.461 13.7106 68.9121 13.4057C69.3632 13.1009 69.8945 12.9366 70.439 12.9337C70.801 12.9299 71.1602 12.9979 71.4958 13.1338C71.8313 13.2697 72.1366 13.4708 72.394 13.7254C72.6513 13.9801 72.8556 14.2833 72.9951 14.6174C73.1345 14.9515 73.2063 15.31 73.2062 15.672Z" fill="#F9F9F9"/>
<path d="M53.3428 18.4248C52.9814 18.4231 52.624 18.3488 52.292 18.2062C51.9599 18.0636 51.66 17.8557 51.4099 17.5948C51.1598 17.3339 50.9648 17.0254 50.8364 16.6876C50.708 16.3498 50.6488 15.9897 50.6624 15.6286C50.6712 15.083 50.8419 14.5524 51.1529 14.104C51.4639 13.6557 51.9011 13.3099 52.409 13.1105C52.9169 12.9112 53.4726 12.8672 54.0055 12.9843C54.5384 13.1014 55.0245 13.3742 55.4021 13.7681C55.7797 14.162 56.0317 14.6592 56.1261 15.1966C56.2205 15.734 56.1531 16.2873 55.9324 16.7863C55.7117 17.2853 55.3477 17.7075 54.8867 17.9992C54.4256 18.291 53.8882 18.4391 53.3428 18.4248Z" fill="#FCFCFC"/>
<path d="M64.6581 15.701C64.6661 16.0621 64.6006 16.4211 64.4657 16.7561C64.3307 17.0911 64.129 17.3953 63.873 17.65C63.6169 17.9047 63.3117 18.1047 62.976 18.2379C62.6402 18.3711 62.2809 18.4347 61.9198 18.4248C61.5585 18.4267 61.2003 18.3568 60.8663 18.2189C60.5322 18.0811 60.2289 17.8782 59.9741 17.622C59.7192 17.3658 59.5179 17.0614 59.3819 16.7266C59.2458 16.3919 59.1777 16.0334 59.1815 15.672C59.1815 14.9458 59.47 14.2493 59.9836 13.7358C60.4971 13.2222 61.1936 12.9337 61.9198 12.9337C62.6461 12.9337 63.3426 13.2222 63.8561 13.7358C64.3696 14.2493 64.6581 14.9458 64.6581 15.672V15.701Z" fill="#FBFBFB"/>
<path d="M66.078 20.1489C66.8044 20.1735 67.495 20.4701 68.0129 20.98C68.5309 21.4899 68.8383 22.1758 68.8742 22.9017C68.8742 23.6318 68.5842 24.332 68.068 24.8482C67.5517 25.3644 66.8515 25.6545 66.1214 25.6545C65.3914 25.6545 64.6912 25.3644 64.1749 24.8482C63.6587 24.332 63.3687 23.6318 63.3687 22.9017C63.4028 22.19 63.698 21.5159 64.1978 21.0081C64.6976 20.5003 65.3669 20.1944 66.078 20.1489Z" fill="#FAFAFA"/>
<path d="M60.442 23.0466C60.445 23.4086 60.3729 23.7673 60.2304 24.1001C60.0879 24.4329 59.878 24.7326 59.6139 24.9804C59.3499 25.2281 59.0374 25.4184 58.6962 25.5394C58.355 25.6604 57.9924 25.7095 57.6313 25.6834C57.264 25.6744 56.9023 25.5915 56.5678 25.4397C56.2332 25.2879 55.9326 25.0703 55.6838 24.8C55.4351 24.5296 55.2433 24.2119 55.1199 23.8659C54.9965 23.5199 54.9439 23.1525 54.9654 22.7858C55.0238 22.0581 55.3547 21.3793 55.8919 20.8851C56.4292 20.3909 57.1331 20.1176 57.8631 20.1199C58.2282 20.1322 58.5869 20.219 58.9173 20.3749C59.2476 20.5308 59.5426 20.7526 59.7841 21.0267C60.0257 21.3008 60.2086 21.6213 60.3217 21.9687C60.4349 22.316 60.4758 22.6828 60.442 23.0466Z" fill="#F9F9F9"/>
<path d="M67.237 9.16677C67.0777 9.84772 66.7299 10.3548 65.9621 10.3258C65.7879 10.3401 65.6129 10.3128 65.4514 10.2461C65.2899 10.1793 65.1466 10.0751 65.0333 9.94207C64.9201 9.809 64.8401 9.65089 64.8001 9.48081C64.76 9.31073 64.761 9.13355 64.803 8.96393C64.8045 8.80488 64.8408 8.64809 64.9095 8.50462C64.9782 8.36115 65.0775 8.23451 65.2005 8.13364C65.3234 8.03277 65.4671 7.96013 65.6212 7.92084C65.7753 7.88156 65.9362 7.87659 66.0925 7.90629C66.4089 7.92857 66.7045 8.07206 66.9177 8.30687C67.1309 8.54168 67.2453 8.8497 67.237 9.16677Z" fill="#F0F0F0"/>
<path d="M58.0225 10.3548C57.1242 10.3548 56.6606 9.86221 56.6461 9.16677C56.6298 8.99275 56.6526 8.8173 56.7128 8.65322C56.773 8.48915 56.8691 8.34059 56.9941 8.2184C57.1191 8.09622 57.2697 8.00348 57.4351 7.94698C57.6005 7.89047 57.7764 7.87162 57.95 7.8918C58.1101 7.89073 58.2685 7.92367 58.4149 7.98843C58.5612 8.05319 58.6922 8.14831 58.799 8.26748C58.9059 8.38664 58.9862 8.52714 59.0346 8.67968C59.0831 8.83221 59.0986 8.9933 59.0801 9.15228C59.09 9.30075 59.0704 9.4497 59.0225 9.59058C58.9746 9.73146 58.8993 9.8615 58.8011 9.97323C58.7028 10.085 58.5834 10.1762 58.4498 10.2417C58.3162 10.3071 58.171 10.3456 58.0225 10.3548Z" fill="#F1F1F1"/>
<path d="M304.367 10.2679C303.831 10.123 303.585 9.84772 303.657 9.38409C303.666 9.29813 303.692 9.2149 303.735 9.13993C303.778 9.06496 303.836 8.99996 303.906 8.94925C303.976 8.89855 304.056 8.8633 304.14 8.84584C304.225 8.82839 304.312 8.82913 304.396 8.84803C304.482 8.84594 304.567 8.86149 304.646 8.89371C304.725 8.92593 304.797 8.97412 304.857 9.03529C304.917 9.09646 304.963 9.16928 304.994 9.24924C305.024 9.32919 305.038 9.41455 305.034 9.5C305.048 9.96363 304.686 10.152 304.367 10.2679Z" fill="#303030"/>
<path d="M287.981 10.2244C287.895 10.2323 287.808 10.2227 287.726 10.196C287.644 10.1694 287.568 10.1263 287.503 10.0694C287.438 10.0125 287.385 9.94291 287.348 9.86495C287.31 9.787 287.289 9.70227 287.286 9.61591C287.259 9.53377 287.252 9.4468 287.263 9.36133C287.275 9.27586 287.305 9.19405 287.352 9.12186C287.4 9.04967 287.462 8.98893 287.536 8.94406C287.61 8.89919 287.692 8.87134 287.778 8.86251C287.878 8.83244 287.984 8.82793 288.086 8.84941C288.188 8.87088 288.283 8.91766 288.363 8.98544C288.442 9.05322 288.503 9.13983 288.54 9.23733C288.577 9.33483 288.589 9.44009 288.575 9.54346C288.568 9.70748 288.505 9.86419 288.397 9.98791C288.289 10.1116 288.143 10.195 287.981 10.2244Z" fill="#1E1E1E"/>
<path d="M105.892 8.55826C106.442 8.47133 107.341 8.80456 107.254 7.79038C107.167 6.7762 106.399 7.2688 105.892 7.19636C106.356 6.47194 106.935 6.66029 107.341 7.10943C107.439 7.20281 107.517 7.31518 107.571 7.43971C107.624 7.56424 107.651 7.69834 107.651 7.83384C107.651 7.96935 107.624 8.10344 107.571 8.22798C107.517 8.35251 107.439 8.46488 107.341 8.55826C106.95 9.06535 106.356 9.28268 105.892 8.55826Z" fill="#4F4F4F"/>
<path d="M107.978 5.11004C108.456 5.24044 109.181 4.64641 109.427 5.55918C109.451 5.6429 109.458 5.73059 109.448 5.81708C109.437 5.90356 109.41 5.98709 109.366 6.06272C109.323 6.13835 109.265 6.20456 109.196 6.25742C109.127 6.31029 109.048 6.34875 108.963 6.37052C108.007 6.45745 108.167 5.6606 108.065 5.08106L107.978 5.11004Z" fill="#F4F4F4"/>
<path d="M107.993 10.6591C108.138 10.123 107.993 9.28268 108.891 9.36961C108.977 9.38978 109.057 9.42707 109.128 9.47925C109.199 9.53143 109.259 9.59741 109.303 9.67322C109.348 9.74902 109.377 9.83309 109.388 9.92035C109.399 10.0076 109.393 10.0963 109.369 10.181C109.181 11.0937 108.442 10.4707 107.92 10.6446L107.993 10.6591Z" fill="#F8F8F8"/>
<path d="M111.021 8.54377C110.923 8.56114 110.822 8.55636 110.726 8.5298C110.631 8.50324 110.542 8.45556 110.467 8.39026C110.392 8.32496 110.332 8.2437 110.293 8.15244C110.253 8.06117 110.235 7.96221 110.238 7.86282C110.232 7.77743 110.244 7.69172 110.273 7.61104C110.301 7.53037 110.346 7.45645 110.405 7.39392C110.463 7.33138 110.534 7.28157 110.612 7.24758C110.691 7.21358 110.776 7.19615 110.861 7.19636C110.96 7.17607 111.061 7.17875 111.158 7.20421C111.256 7.22966 111.345 7.27718 111.421 7.34309C111.497 7.40899 111.556 7.49149 111.595 7.58415C111.634 7.67681 111.65 7.77714 111.644 7.87731C111.65 7.9627 111.638 8.04841 111.609 8.12909C111.581 8.20976 111.536 8.28368 111.477 8.34621C111.419 8.40875 111.348 8.45856 111.27 8.49255C111.191 8.52654 111.106 8.54398 111.021 8.54377Z" fill="#EEEEEE"/>
<path d="M110.369 22.2932C111.035 22.0903 111.557 22.2932 111.629 23.0031C111.629 23.0906 111.612 23.1772 111.577 23.2575C111.542 23.3379 111.491 23.4102 111.427 23.47C111.364 23.5298 111.288 23.5758 111.206 23.6051C111.123 23.6345 111.036 23.6466 110.948 23.6406C110.398 23.5247 109.963 23.2059 110.398 22.525C110.381 22.4488 110.371 22.3712 110.369 22.2932Z" fill="#E2E2E2"/>
<path d="M109.746 25.5965L109.456 25.2778C108.99 25.1525 108.555 24.9303 108.181 24.6258L107.906 24.394C108.297 23.8579 108.775 23.6696 109.355 24.0897C109.934 24.5099 110.369 24.9156 109.746 25.5965Z" fill="#7C7C7C"/>
<path d="M106.587 22.2063C106.993 22.3366 107.312 22.5395 107.254 23.0321C107.248 23.1172 107.226 23.2003 107.188 23.2766C107.15 23.3529 107.096 23.4207 107.032 23.4761C106.967 23.5315 106.891 23.5733 106.81 23.5991C106.729 23.6248 106.643 23.634 106.558 23.6261C106.474 23.6342 106.388 23.6245 106.308 23.5975C106.227 23.5706 106.153 23.5271 106.09 23.4697C106.027 23.4124 105.977 23.3425 105.943 23.2647C105.909 23.1868 105.891 23.1026 105.892 23.0176C105.877 22.5829 106.167 22.3222 106.587 22.2063Z" fill="#F4F4F4"/>
<path d="M109.369 20.0185C109.224 20.4966 109.775 21.2355 108.847 21.4673C108.763 21.4886 108.674 21.4921 108.588 21.4777C108.502 21.4634 108.419 21.4314 108.346 21.3839C108.273 21.3363 108.21 21.2741 108.162 21.2013C108.113 21.1284 108.08 21.0464 108.065 20.9603C108.065 19.975 108.804 20.1634 109.398 20.1054L109.369 20.0185Z" fill="#F5F5F5"/>
<path d="M108.181 24.6258C108.804 24.4519 109.34 24.4519 109.456 25.2778C109.224 25.669 109.021 26.1471 108.442 25.7849C108.336 25.7382 108.243 25.6674 108.169 25.5782C108.096 25.489 108.045 25.3838 108.019 25.2711C107.994 25.1584 107.995 25.0413 108.023 24.9292C108.052 24.8171 108.105 24.7132 108.181 24.6258Z" fill="#F4F4F4"/>
</svg>
