<?xml version="1.0" encoding="UTF-8"?><svg id="Layer_1" xmlns="http://www.w3.org/2000/svg" width="158.51mm" height="36.09mm" viewBox="0 0 449.31 102.29"><defs><style>.cls-1{fill:#83c5be;}.cls-1,.cls-2{stroke-width:0px;}.cls-2{fill:#016d78;}</style></defs><path class="cls-2" d="M429.95,0c-5.95-.17-11.68,3.22-14.18,9.02-3.29,7.59.21,16.41,7.8,19.7,2.08.9,4.26,1.28,6.39,1.21V0Z"/><path class="cls-2" d="M432.37,10.03l-.03-3.63,13.64-.1c1,0,1.82.8,1.83,1.8h0c0,1-.8,1.82-1.8,1.83l-13.64.1Z"/><path class="cls-2" d="M432.37,23.4l-.03-3.63,13.64-.1c1,0,1.82.8,1.83,1.8h0c0,1-.8,1.82-1.8,1.83l-13.64.1Z"/><path class="cls-2" d="M87.71,12.59h321.75c1.45,0,2.63,1.18,2.63,2.63h0c0,1.45-1.18,2.63-2.63,2.63H87.71v-5.26Z"/><path class="cls-2" d="M41.4,19.59H8.6c-.66,0-1.2.54-1.2,1.2v17.4c0,.66.54,1.2,1.2,1.2h24c.66,0,1.2.54,1.2,1.2v4.6c0,.66-.54,1.2-1.2,1.2H8.6c-.66,0-1.2.54-1.2,1.2v23.5c0,.66.54,1.2,1.2,1.2h24.8c.66,0,1.2.54,1.2,1.2v4.6c0,.66-.54,1.2-1.2,1.2H1.2c-.66,0-1.2-.54-1.2-1.2V13.79c0-.66.54-1.2,1.2-1.2h40.2c.66,0,1.2.54,1.2,1.2v4.6c0,.66-.54,1.2-1.2,1.2Z"/><path class="cls-2" d="M45.89,13.37l17.39,47.08c.39,1.04,1.86,1.04,2.25,0l17.39-47.08c.17-.47.62-.78,1.12-.78h5.62c.84,0,1.42.84,1.12,1.63l-25.26,66.15c-.39,1.03-1.85,1.03-2.24,0L38.02,14.21c-.3-.78.28-1.63,1.12-1.63h5.62c.5,0,.95.31,1.12.78Z"/><path class="cls-1" d="M131.65,68.11c.6.33.8,1.08.45,1.67-1.16,1.98-2.72,4.01-4.5,5.61-3.8,3.4-8.5,5.1-13.8,5.1-10,0-20.5-6.3-20.5-21.7,0-12.4,7.6-22,20.1-22,8.1,0,13.2,4,15.7,7.6,2.42,3.44,3.88,9.21,3.92,14.42,0,.66-.54,1.18-1.2,1.18h-29.86c-.71,0-1.26.61-1.2,1.32.66,7.84,6.31,12.78,13.14,12.78,3.4,0,6.1-1,8.5-3,1.56-1.32,2.86-2.97,3.77-4.63.32-.58,1.04-.79,1.62-.47l3.86,2.12ZM124.08,53.99c.79,0,1.38-.77,1.16-1.53-1.64-5.64-6.23-9.27-11.84-9.27s-10.25,3.86-11.84,9.27c-.22.76.37,1.53,1.16,1.53h21.36Z"/><path class="cls-1" d="M145.2,37.79h4.8c.66,0,1.2.54,1.2,1.2h0c0,1.05,1.25,1.6,2.01.88,1.58-1.5,4.04-3.08,7.39-3.08,1.75,0,3.62.51,5.22,1.16.65.27.91,1.04.59,1.66l-2.23,4.26c-.31.59-1.03.8-1.63.5-1.2-.6-2.3-.78-3.15-.78-2.9,0-4.7,1.2-5.8,2.6-1.2,1.6-2.4,4.4-2.4,11.2v20.7c0,.66-.54,1.2-1.2,1.2h-4.8c-.66,0-1.2-.54-1.2-1.2v-39.1c0-.66.54-1.2,1.2-1.2Z"/><path class="cls-1" d="M189.53,74.86l-17.95-35.33c-.41-.8.17-1.74,1.07-1.74h5.5c.46,0,.87.26,1.07.67l13.25,26.77c.45.91,1.75.88,2.17-.04l12.14-26.7c.19-.43.62-.7,1.09-.7h5.34c.88,0,1.46.92,1.08,1.71l-29.37,62.11c-.2.42-.62.69-1.08.69h-5.32c-.89,0-1.47-.93-1.08-1.73l12.09-24.64c.17-.34.16-.74,0-1.07Z"/><path class="cls-1" d="M225.01,38.51l10.86,24.9c.42.97,1.8.96,2.21-.02l10.81-26.11c.41-.99,1.81-.99,2.22,0l10.72,26.11c.4.98,1.78.99,2.21.03l10.95-24.9c.19-.44.62-.72,1.1-.72h5.34c.88,0,1.46.91,1.09,1.7l-18.66,40.22c-.44.95-1.8.92-2.2-.05l-10.65-25.79c-.41-.99-1.81-.99-2.22,0l-10.64,25.78c-.4.97-1.76.99-2.2.04l-18.47-40.21c-.36-.79.22-1.7,1.09-1.7h5.35c.48,0,.91.28,1.1.72Z"/><path class="cls-1" d="M292.09,6.39h4.8c.66,0,1.2.54,1.2,1.2v31.97c0,1.04,1.22,1.58,2,.89,1.98-1.75,5.2-3.66,9.9-3.66s9.4,2,11.9,5.7c2.1,3.1,2.4,6.5,2.4,11.1v24.5c0,.66-.54,1.2-1.2,1.2h-4.8c-.66,0-1.2-.54-1.2-1.2v-24.3c0-2.5-.2-5.4-1.9-7.6-1.4-1.8-3.6-3-6.8-3-2.5,0-5.2.7-7.3,3.2-2.8,3.3-3,8.2-3,11.2v20.5c0,.66-.54,1.2-1.2,1.2h-4.8c-.66,0-1.2-.54-1.2-1.2V7.59c0-.66.54-1.2,1.2-1.2Z"/><path class="cls-1" d="M372.64,68.11c.6.33.8,1.08.45,1.67-1.16,1.98-2.72,4.01-4.5,5.61-3.8,3.4-8.5,5.1-13.8,5.1-10,0-20.5-6.3-20.5-21.7,0-12.4,7.6-22,20.1-22,8.1,0,13.2,4,15.7,7.6,2.42,3.44,3.88,9.21,3.92,14.42,0,.66-.54,1.18-1.2,1.18h-29.86c-.71,0-1.26.61-1.2,1.32.66,7.84,6.31,12.78,13.14,12.78,3.4,0,6.1-1,8.5-3,1.56-1.32,2.86-2.97,3.77-4.63.32-.58,1.04-.79,1.62-.47l3.86,2.12ZM365.08,53.99c.8,0,1.38-.77,1.16-1.53-1.64-5.64-6.23-9.27-11.84-9.27s-10.25,3.86-11.84,9.27c-.22.76.37,1.53,1.16,1.53h21.36Z"/><path class="cls-1" d="M386.19,37.79h4.8c.66,0,1.2.54,1.2,1.2h0c0,1.05,1.25,1.6,2.01.88,1.58-1.5,4.04-3.08,7.39-3.08,1.75,0,3.62.51,5.22,1.16.65.27.91,1.04.59,1.66l-2.23,4.26c-.31.59-1.03.8-1.63.5-1.2-.6-2.3-.78-3.15-.78-2.9,0-4.7,1.2-5.8,2.6-1.2,1.6-2.4,4.4-2.4,11.2v20.7c0,.66-.54,1.2-1.2,1.2h-4.8c-.66,0-1.2-.54-1.2-1.2v-39.1c0-.66.54-1.2,1.2-1.2Z"/><path class="cls-1" d="M447.94,68.11c.6.33.8,1.08.45,1.67-1.16,1.98-2.72,4.01-4.5,5.61-3.8,3.4-8.5,5.1-13.8,5.1-10,0-20.5-6.3-20.5-21.7,0-12.4,7.6-22,20.1-22,8.1,0,13.2,4,15.7,7.6,2.42,3.44,3.88,9.21,3.92,14.42,0,.66-.54,1.18-1.2,1.18h-29.86c-.71,0-1.26.61-1.2,1.32.66,7.84,6.31,12.78,13.14,12.78,3.4,0,6.1-1,8.5-3,1.56-1.32,2.86-2.97,3.77-4.63.32-.58,1.04-.79,1.62-.47l3.86,2.12ZM440.37,53.99c.79,0,1.38-.77,1.16-1.53-1.64-5.64-6.23-9.27-11.84-9.27s-10.25,3.86-11.84,9.27c-.22.76.37,1.53,1.16,1.53h21.36Z"/></svg>