<svg width="18" height="18" viewBox="0 0 18 18" fill="none" xmlns="http://www.w3.org/2000/svg">
<path d="M11.6592 7.44407C11.9396 6.94577 12.1735 6.49614 12.3177 6.15391C13.018 4.4921 12.3255 2.58058 10.6327 1.80084C8.9399 1.02111 7.24005 1.82962 6.49403 3.39069C5.06743 2.41178 3.16438 2.55554 2.11491 4.08318C1.06544 5.61081 1.39482 7.60652 2.83222 8.69553C3.48458 9.18977 4.77477 9.91815 5.98947 10.5663M12.2229 8.81246C11.9063 7.1115 10.459 5.8675 8.63673 6.20561C6.81444 6.54373 5.63616 8.18781 5.88251 9.97425C6.08044 11.4095 7.17294 14.777 7.5948 16.0455C7.65237 16.2186 7.68116 16.3051 7.73814 16.3655C7.78779 16.4181 7.8538 16.4562 7.92416 16.4729C8.00492 16.4921 8.09426 16.4737 8.27295 16.437C9.58239 16.1681 13.045 15.4305 14.3869 14.8843C16.0572 14.2044 16.9192 12.3631 16.2736 10.6147C15.6279 8.8664 13.8543 8.23613 12.2229 8.81246Z" stroke="#037E83" stroke-width="2" stroke-linecap="round" stroke-linejoin="round"/>
</svg>
