<svg width="18" height="17" viewBox="0 0 18 17" fill="none" xmlns="http://www.w3.org/2000/svg">
<path d="M6.75 15.75V10.2C6.75 9.77996 6.75 9.56994 6.83175 9.40951C6.90365 9.26839 7.01839 9.15365 7.15951 9.08175C7.31994 9 7.52996 9 7.95 9H10.05C10.47 9 10.6801 9 10.8405 9.08175C10.9816 9.15365 11.0964 9.26839 11.1683 9.40951C11.25 9.56994 11.25 9.77996 11.25 10.2V15.75M1.5 7.125L8.28 2.04C8.5382 1.84635 8.66729 1.74953 8.80908 1.71221C8.93423 1.67926 9.06578 1.67926 9.19093 1.71221C9.33271 1.74953 9.46181 1.84635 9.72 2.04L16.5 7.125M3 6V13.35C3 14.1901 3 14.6101 3.16349 14.931C3.3073 15.2132 3.53677 15.4427 3.81902 15.5865C4.13988 15.75 4.55992 15.75 5.4 15.75H12.6C13.4401 15.75 13.8601 15.75 14.181 15.5865C14.4632 15.4427 14.6927 15.2132 14.8365 14.931C15 14.6101 15 14.1901 15 13.35V6L10.44 2.58C9.92362 2.19271 9.66542 1.99906 9.38185 1.92442C9.13155 1.85853 8.86846 1.85853 8.61815 1.92442C8.33459 1.99906 8.07639 2.19271 7.56 2.58L3 6Z" stroke="#037E83" stroke-width="2" stroke-linecap="round" stroke-linejoin="round"/>
</svg>
