<?xml version="1.0" encoding="UTF-8"?><svg id="Layer_1" xmlns="http://www.w3.org/2000/svg" width="276.25mm" height="33.79mm" viewBox="0 0 783.06 95.79"><defs><style>.cls-1{fill:#000;stroke-width:0px;}</style></defs><g id="YLOcRH.tif"><path class="cls-1" d="M402.9,70.57c2.04.57,3.8.95,5.5,1.54,6.31,2.2,9.21,7.14,8.08,13.6-.99,5.61-6.2,9.95-12.11,9.96-9.39.02-18.78.04-28.17-.06-5.48-.06-10.17-1.87-12.67-7.14-3.64-7.7,1.26-16,10-17.18.78-.11,1.56-.25,2.13-.34-3.93-3.1-8.12-5.88-11.66-9.31-10.64-10.31-13.45-22.81-8.74-36.69,4.59-13.54,14.24-21.84,28.4-24.34,20.13-3.55,38.93,10.16,41.99,30.31,2.42,15.93-5.09,30.05-20.44,38.42-.66.36-1.32.7-2.31,1.22ZM423.11,36.56c.01-18.47-15.1-33.53-33.63-33.52-18.42.02-33.48,15.09-33.45,33.46.03,18.51,14.91,33.42,33.38,33.46,18.62.04,33.68-14.89,33.7-33.4ZM389.85,92.79h0c4.92,0,9.84.07,14.75,0,5.69-.09,9.3-3.85,9.25-9.47-.05-5.53-3.86-9.3-9.48-9.29-9.46.02-18.91.07-28.37.16-1.27.01-2.58.16-3.8.52-4.2,1.25-7.02,5.55-6.51,9.71.6,4.81,4.2,8.21,9.17,8.34,4.99.14,9.99.03,14.98.03Z"/><path class="cls-1" d="M521.14,71.11c1.38.18,2.79.24,4.14.56,6.4,1.52,10.26,7.2,9.41,13.74-.76,5.86-6.01,10.33-12.19,10.34-9.31.02-18.63.1-27.94-.06-2.44-.04-5.01-.51-7.27-1.41-4.48-1.76-6.8-5.34-7.1-10.14-.31-4.97,1.85-8.66,6.27-10.83,2.26-1.11,4.79-1.69,7.44-2.58-.76-.42-1.56-.86-2.36-1.3-9.62-5.38-16.93-12.69-19.29-23.84-2.66-12.51-.69-23.96,8.3-33.68,1.38-1.49,2.91-2.22,4.97-2.21,14.68.04,29.37-.03,44.05.08,1.35.01,3.04.7,3.99,1.65,17.25,17.22,12.32,46.71-9.55,57.62-1,.5-1.98,1.02-2.97,1.53.04.17.08.34.12.52ZM508.15,12.43c-6.96,0-13.93-.14-20.89.1-1.78.06-4.12.84-5.19,2.12-6.99,8.37-10.05,17.93-7.5,28.8,4.13,17.58,19.55,28.47,37.45,26.01,13.38-1.84,22.6-9.54,27.06-22.16,4.38-12.41,1.69-23.75-7.14-33.54-.68-.76-2.06-1.24-3.12-1.26-6.89-.11-13.78-.06-20.66-.06ZM507.4,92.64c4.84,0,9.68.04,14.53-.01,5.65-.06,9.64-3.91,9.65-9.21.01-5.38-4.08-9.34-9.78-9.36-9.53-.03-19.07-.03-28.6,0-5.62.02-9.86,4.1-9.82,9.38.04,5.21,4.15,9.14,9.72,9.2,4.77.05,9.53,0,14.3,0Z"/><path class="cls-1" d="M624.56,9.76c5.3,0,10.6,0,15.9,0,3.34,0,6.25,1.16,8.65,3.42,10.89,10.3,14.97,22.82,10.79,37.22-4.21,14.48-14.38,23.16-29.27,25.74-21.56,3.73-41.73-13.45-41.83-35.27-.06-11.86,4.6-21.46,13.84-28.91,1.9-1.53,4.01-2.29,6.48-2.26,5.15.06,10.3.02,15.45.02v.04ZM657.52,46.62c-5.64,9.81-15.25,8.98-20.18,5.03-5.86-4.7-6.57-13.38-1.43-18.88,2.48-2.65,5.58-4.04,9.27-4.08,5.55-.06,9.36,2.76,12.47,7.29.35-.95.49-1.84.33-2.67-1.5-7.53-5.25-13.8-11.23-18.56-1.63-1.3-4.06-2.19-6.15-2.24-10.22-.22-20.45-.07-30.67-.12-2.49-.01-4.56.8-6.41,2.4-11.16,9.65-14.8,23.12-10,37.03,5.14,14.88,22.2,24.68,37.7,21.6,4.68-.93,9.03-2.62,12.89-5.9-6.75-.65-8.68-2.12-8.43-6.25.18-3.04,2.84-5.68,5.86-5.39,1.46.14,3.06.87,4.21,1.81,2.17,1.76,2.13,4.24.96,6.91,5.25-1.99,11.68-12.93,10.8-17.97ZM656.11,41.51c0-5.91-4.82-10.78-10.76-10.84-5.83-.06-11.01,4.96-11.01,10.68,0,5.89,5.06,10.92,11,10.94,5.92.02,10.76-4.82,10.77-10.78ZM641.57,57.26c-2.65-.02-4.46,1.71-4.5,4.31-.04,2.55,1.96,4.64,4.51,4.71,2.41.07,4.48-2.09,4.5-4.71.02-2.51-1.84-4.29-4.5-4.31Z"/><path class="cls-1" d="M272.2,72.79c-22.02-.03-38.86-18.3-36.38-39.55.61-5.2,2.82-10.25,4.51-15.29.78-2.3,1.97-4.4.62-6.89-.22-.41.08-1.4.48-1.8,1.31-1.33,2.71-2.57,4.18-3.74,1.35-1.08,2.9-1.91,4.23-3.02,1.39-1.17,2.63-1.4,3.96-.03,1.34,1.36,2.84,1.45,4.57.75,9.12-3.72,18.25-3.66,27.34.1,1.46.61,2.48.53,3.57-.72,1.21-1.38,2.79-1.45,4.29-.38,2.64,1.89,5.26,3.8,7.85,5.76,1.41,1.07,1.74,2.38,1.17,4.19-.38,1.21-.37,2.84.13,3.99,2.5,5.68,4.67,11.41,5.29,17.65,1.5,15.31-7.52,30.25-21.86,36.15-4.6,1.89-9.36,2.91-13.93,2.82ZM238.29,36.23c.05,22.14,19.9,37.69,41.04,32.86,17.52-4,28.33-21.34,25.31-36.25-1.11-5.47-3.48-10.68-5.19-16.04-.34-1.07-.64-2.33-.4-3.38.51-2.25-.14-3.81-2.04-5.01-1.53-.96-2.98-2.05-4.56-2.91-.5-.27-1.6-.26-1.93.09-1.73,1.83-3.63,1.58-5.62.72-8.88-3.84-17.73-3.85-26.59.09-2.02.9-3.92.93-5.61-.86-.35-.37-1.38-.54-1.83-.3-1.58.86-3.02,1.98-4.56,2.92-1.91,1.18-2.59,2.73-2.15,4.98.21,1.07.06,2.35-.35,3.37-2.58,6.58-5.82,12.97-5.52,19.7Z"/><path class="cls-1" d="M702.62,26.55c-.05-6.16,1.06-11.85,5.13-16.75,3.86-4.65,9.1-6.57,14.75-7.69,14.2-2.82,28.41-2.93,42.55.39,10.93,2.56,16.89,9.13,17.79,19.52.76,8.84-.33,17.47-3.65,25.74-4.39,10.93-11.97,18.72-23.5,21.8-14.79,3.95-28.58,1.61-40.38-8.55-6.81-5.86-10-13.86-11.43-22.55-.65-3.93-.85-7.93-1.25-11.9ZM743.16,2.24c-.04.18-.07.36-.11.54-3.17.2-6.34.43-9.51.59-6.79.34-13.36,1.47-19.32,5-4.33,2.56-7.3,6.06-8.06,11.14-1.08,7.17-.54,14.29,1.04,21.33,4.46,19.9,22.36,31.11,42.87,27.22,11.03-2.09,19.66-7.4,24.77-17.42,4.55-8.92,6.19-18.57,5.02-28.53-1.11-9.45-5.24-14.3-14.58-16.38-7.27-1.62-14.73-2.35-22.11-3.48Z"/><path class="cls-1" d="M72.67,36.28c.05,16.36-10.07,30.15-25.74,34.97-2.28.7-3.7,1.71-3.67,4.38,0,.66-1.36,1.84-2.17,1.9-2.94.22-5.9.13-8.85.05-2.05-.05-3.27-1.09-3.22-3.25.03-1.54-.49-2.52-2.12-2.97-13.49-3.72-22.09-12.53-25.68-25.82C-4.92,22.76,12.95-.12,36.62.32c18.98.35,36.14,14.58,36.05,35.97ZM69.81,35.59c-.07-1.43,0-2.88-.23-4.29C67.07,14.9,52.09,2.33,34.88,3.07,14.01,3.98-3.74,24.46,4.7,47.83c4.02,11.15,12.08,18.14,23.56,21.2,1.48.39,2.93.72,3.45,2.5,1,3.38,1.04,3.36,4.63,3.33.6,0,1.21.02,1.81.1,1.83.24,2.76-.51,2.66-2.37-.11-2.16,1.17-3.08,3.05-3.57,1.75-.46,3.53-.89,5.21-1.55,12.91-5.04,20.68-17.06,20.73-31.89Z"/><path class="cls-1" d="M154.06,9.72c6.89,0,13.78.04,20.66-.02,3.03-.02,5.34,1.14,7.23,3.5,16.89,21.07,7.11,51.3-18.88,58.27-23.17,6.21-46.04-12.04-45.32-36.15.26-8.71,3.39-16.27,9.01-22.87,1.62-1.9,3.67-2.77,6.18-2.76,7.04.03,14.08.01,21.12.01v.02ZM154,12.49v-.05c-6.59,0-13.17.04-19.76-.02-2.54-.02-4.53.85-6.13,2.81-5.92,7.23-8.89,15.44-7.51,24.77,2.65,17.91,16.7,34.17,41.18,29.25,22.27-4.48,35.29-33.81,18.16-54.05-1.58-1.86-3.52-2.73-5.95-2.72-6.66.03-13.32,0-19.99,0Z"/><path class="cls-1" d="M389.41,46.38c5.13-.02,9.43,4.09,9.4,8.99-.02,4.96-4.26,9.15-9.28,9.18-5.06.03-8.94-4.02-8.95-9.32,0-5.1,3.71-8.83,8.83-8.84ZM381.98,54.98c0,4.19,3.44,7.67,7.61,7.66,4.2,0,7.67-3.43,7.72-7.61.04-4.1-3.51-7.67-7.65-7.69-4.15-.02-7.66,3.47-7.67,7.63Z"/><path class="cls-1" d="M412.8,22.68c.05,4.82-4.16,8.96-9.21,9.05-4.94.09-9.13-4.06-9.14-9.04,0-4.91,4.23-9.27,9-9.28,4.9,0,9.29,4.35,9.35,9.26ZM403.83,30.16c4.49,0,7.56-3.09,7.51-7.55-.05-4.33-3.13-7.47-7.38-7.5-4.57-.03-7.92,3.12-7.95,7.47-.03,4.37,3.29,7.58,7.82,7.58Z"/><path class="cls-1" d="M384.79,22.7c.01,4.88-4.19,9.03-9.15,9.03-5,0-9.01-4.11-8.94-9.15.07-4.92,4.1-9.1,8.82-9.15,4.83-.05,9.25,4.37,9.27,9.28ZM383.3,22.83c-.01-4.19-3.55-7.68-7.69-7.61-4.21.07-7.68,3.54-7.66,7.68.01,4.15,3.54,7.64,7.7,7.62,4.15-.01,7.67-3.55,7.65-7.69Z"/><path class="cls-1" d="M413.86,43.24c.03,3.14-2.2,5.58-5.21,5.68-3.15.11-5.83-2.45-5.88-5.61-.05-3.19,2.29-5.57,5.51-5.59,3.23-.02,5.55,2.28,5.59,5.51ZM408.17,46.69c1.88-.02,3.44-1.48,3.41-3.2-.03-1.53-1.69-2.97-3.41-2.95-1.73.02-3.39,1.47-3.43,2.97-.04,1.7,1.58,3.19,3.43,3.17Z"/><path class="cls-1" d="M370.95,37.72c3.21,0,5.6,2.38,5.55,5.54-.05,3.14-2.53,5.61-5.61,5.58-3.21-.03-5.76-2.6-5.71-5.76.05-3.06,2.52-5.36,5.77-5.36ZM367.44,43.2c0,2.12,1.44,3.51,3.59,3.47,1.74-.03,3.24-1.57,3.3-3.38.06-2.03-1.67-3.75-3.73-3.72-1.94.03-3.16,1.43-3.16,3.62Z"/><path class="cls-1" d="M384.81,83.37c-.03,3.98-3.11,7.07-7.03,7.07-4,0-7.21-3.26-7.13-7.23.08-3.85,3.32-6.97,7.22-6.94,3.99.03,6.97,3.09,6.94,7.11ZM377.44,88.08c3.08.05,5.02-1.81,5.04-4.83.02-2.63-1.99-4.6-4.77-4.68-2.77-.08-4.76,1.78-4.84,4.53-.09,3.03,1.66,4.94,4.56,4.98Z"/><path class="cls-1" d="M408.44,83.49c-.14,3.83-3.49,6.96-7.29,6.82-3.75-.14-6.74-3.39-6.61-7.18.13-3.86,3.46-6.99,7.26-6.8,3.79.19,6.77,3.41,6.64,7.17ZM401.61,78.9c-2.67-.05-4.84,1.96-4.92,4.56-.08,2.6,1.95,4.61,4.74,4.68,2.79.07,4.87-1.84,4.9-4.48.03-2.59-2.07-4.71-4.72-4.75Z"/><path class="cls-1" d="M486.39,45.58c-4.71.02-8.43-3.57-8.44-8.16-.02-4.76,3.67-8.43,8.45-8.43,4.64,0,8.33,3.67,8.33,8.3,0,4.61-3.67,8.27-8.34,8.29ZM486.33,30.48c-3.86.04-6.86,3.1-6.8,6.93.07,3.83,3.13,6.77,7.03,6.72,3.71-.05,6.66-3.07,6.67-6.85.01-3.86-3.01-6.84-6.9-6.8Z"/><path class="cls-1" d="M507.86,45.58c-4.82.02-8.59-3.63-8.57-8.31.02-4.55,3.8-8.31,8.38-8.36,4.57-.04,8.36,3.7,8.4,8.29.04,4.69-3.55,8.36-8.21,8.38ZM507.77,44.16c3.78,0,6.92-3.1,6.93-6.87.01-3.8-3.08-6.84-6.93-6.83-3.87,0-6.93,3.03-6.91,6.83.01,3.81,3.08,6.86,6.92,6.86Z"/><path class="cls-1" d="M497.15,47.24c4.69-.03,8.41,3.63,8.42,8.26,0,4.51-3.65,8.2-8.19,8.29-4.54.08-8.83-4.05-8.89-8.57-.05-3.93,4.31-7.95,8.65-7.98ZM497.15,62.22c3.84,0,6.87-3.04,6.87-6.9,0-3.56-3.1-6.77-6.53-6.75-4.18.02-7.29,3.07-7.33,7.2-.03,3.64,3.02,6.45,6.99,6.45Z"/><path class="cls-1" d="M518.28,47.31c4.69.05,8.32,3.74,8.24,8.36-.08,4.56-3.92,8.21-8.55,8.1-4.61-.1-8.34-3.89-8.29-8.42.05-4.52,3.87-8.1,8.6-8.05ZM518.09,62.25c3.87.02,7.06-3,7.09-6.7.03-3.8-3.22-7.04-7.07-7.04-3.8,0-6.75,3.07-6.73,7.01.02,3.86,2.86,6.72,6.7,6.73Z"/><path class="cls-1" d="M537.51,37.24c.03,4.69-3.56,8.29-8.3,8.34-4.76.04-8.43-3.46-8.53-8.13-.1-4.75,3.61-8.47,8.44-8.46,4.77.01,8.36,3.55,8.39,8.25ZM528.85,30.55c-3.99.02-7.16,3.06-7.2,6.91-.04,3.72,3.13,6.87,6.95,6.91,4.29.05,7.41-2.87,7.36-6.87-.06-3.97-3.12-6.96-7.11-6.94Z"/><path class="cls-1" d="M522.9,20.92c.02,3.15-2.11,5.46-5.08,5.51-2.92.05-5.26-2.3-5.31-5.34-.05-3.09,2.12-5.38,5.15-5.44,3.1-.05,5.22,2.08,5.24,5.27ZM517.79,23.89c1.78,0,3.23-1.39,3.21-3.08-.01-1.58-1.43-2.92-3.1-2.95-1.81-.03-3.15,1.29-3.12,3.09.03,1.74,1.26,2.95,3.01,2.94Z"/><path class="cls-1" d="M497.4,26.06c-3.15,0-5.02-1.88-5.01-5.06,0-3.15,1.93-5.22,4.92-5.27,3.01-.05,5.48,2.07,5.55,4.78.09,3.27-2.15,5.55-5.46,5.55ZM497.49,17.85c-1.68-.03-2.87,1.24-2.87,3.06,0,1.85,1.08,2.92,2.95,2.94,1.82.01,3.06-1.14,3.07-2.86.01-1.77-1.33-3.1-3.15-3.13Z"/><path class="cls-1" d="M495.16,76.47c3.97-.06,7.24,3,7.28,6.83.05,3.74-3.04,6.9-6.86,7-3.95.11-7.18-2.94-7.22-6.83-.04-3.87,2.94-6.95,6.79-7ZM500.23,83.33c0-2.71-2.03-4.78-4.65-4.77-2.59.01-4.69,2.16-4.68,4.79,0,2.68,2.05,4.72,4.71,4.73,2.69,0,4.63-1.98,4.62-4.75Z"/><path class="cls-1" d="M526.2,83.36c.05,3.89-2.88,6.95-6.73,7.02-4.02.08-7.05-2.87-7.08-6.89-.02-3.88,2.91-6.86,6.82-6.93,3.83-.07,6.94,2.96,6.99,6.8ZM519.17,78.96c-2.53.04-4.7,2.11-4.72,4.52-.03,2.63,2.17,4.65,5.06,4.65,2.51,0,4.63-2.12,4.59-4.6-.04-2.51-2.3-4.61-4.93-4.57Z"/><path class="cls-1" d="M618.48,41.29c-.05,7.57-5.76,13.32-13.13,13.24-7.34-.08-12.94-5.96-12.89-13.52.06-7.16,5.85-13,12.95-13.05,7.33-.05,13.11,5.84,13.06,13.33ZM616.21,41.6c.07-6.08-4.53-10.77-10.63-10.84-6.09-.07-11.02,4.66-11.18,10.71-.16,5.89,4.86,10.98,10.88,11.02,6.03.05,10.86-4.76,10.94-10.9Z"/><path class="cls-1" d="M625.89,71.43c-5.13.05-9.05-3.79-9.11-8.9-.06-5.04,3.93-9.15,8.92-9.2,4.91-.05,9.42,4.3,9.45,9.11.03,4.69-4.36,8.95-9.26,9ZM632.67,62.39c-.03-3.85-3.08-6.95-6.84-6.94-3.75,0-7.08,3.37-7.02,7.1.06,3.71,3.31,6.85,7.04,6.79,3.88-.07,6.84-3.08,6.81-6.94Z"/><path class="cls-1" d="M625.39,29.2c3.14-.07,6,2.63,6.12,5.77.12,3.21-2.71,6.2-5.9,6.24-3.21.04-6.14-2.83-6.16-6.02-.02-3.09,2.79-5.91,5.93-5.98ZM625.4,30.83c-2.74,0-4.31,1.61-4.3,4.41.01,2.61,1.68,4.34,4.18,4.35,2.91,0,4.62-1.76,4.57-4.71-.04-2.52-1.71-4.04-4.45-4.04Z"/><path class="cls-1" d="M616.09,61.88c.01,3.34-2.68,6.01-6.05,6.01-3.25,0-5.97-2.63-6.03-5.82-.06-3.22,2.75-6.12,5.99-6.16,3.32-.05,6.08,2.67,6.09,5.98ZM614.46,61.7c.02-2.64-1.85-4.45-4.6-4.45-2.55,0-4.25,1.79-4.25,4.48,0,2.69,1.84,4.49,4.56,4.46,2.58-.03,4.26-1.8,4.28-4.49Z"/><path class="cls-1" d="M604.73,21.36c-.06-3.13,2.88-6.14,6.03-6.17,3.02-.03,5.92,2.81,6.04,5.93.13,3.19-2.73,6.07-6.03,6.07-3.22,0-5.98-2.65-6.04-5.83ZM610.67,25.56c2.63.04,4.47-1.71,4.51-4.3.04-2.53-1.85-4.61-4.26-4.69-2.44-.09-4.4,1.87-4.44,4.45-.05,2.76,1.55,4.5,4.19,4.54Z"/><path class="cls-1" d="M645.43,21.24c0,3.08-3.1,6.12-6.17,6.05-3.04-.06-5.85-2.95-5.88-6.05-.03-3.14,2.96-6.11,6.11-6.06,2.95.04,5.95,3.1,5.95,6.05ZM643.85,21.35c.05-2.84-1.44-4.41-4.22-4.44-2.73-.03-4.42,1.46-4.49,3.97-.09,2.99,1.39,4.63,4.23,4.69,2.76.06,4.43-1.52,4.47-4.22Z"/><path class="cls-1" d="M625.14,26.91c-3.31.02-5.88-2.54-5.87-5.85,0-3.21,2.51-5.8,5.66-5.87,3.21-.07,6.16,2.85,6.09,6.03-.06,3.1-2.73,5.67-5.88,5.69ZM625.09,25.57c2.58,0,4.55-1.88,4.53-4.32-.02-2.52-1.94-4.44-4.45-4.45-2.5,0-4.45,1.89-4.52,4.39-.06,2.5,1.84,4.37,4.44,4.38Z"/><path class="cls-1" d="M261.95,17.73c-.01-5.59,4.28-9.88,9.87-9.86,5.5.03,10.06,4.43,10.13,9.79.07,5.31-4.73,10.06-10.17,10.06-5.46,0-9.81-4.43-9.83-9.99ZM264.61,16.02c0,1.66-.19,3.16.06,4.59.21,1.22.73,2.48,1.43,3.52,1.48,2.19,3.68.88,5.55.74.65-.05,1.58-.85,1.74-1.48.14-.53-.6-1.8-1.03-1.84-.7-.07-1.53.53-2.17,1.02-.32.24-.36.86-.53,1.31-.25-.08-.5-.15-.76-.23.36-.91.49-2.07,1.14-2.65.6-.54,1.89-.83,2.66-.57,2.61.88,1.86,3.15,1.57,5.15,2.89-.7,4.57-2.36,4.96-4.97-.81-.06-1.69.06-2.38-.23-.82-.35-1.84-.93-2.13-1.67-.3-.76-.13-2.08.39-2.67.52-.6,1.72-.76,2.64-.84,1.75-.15,2.06-.98,1-2.15-1.2-1.32-2.65-2.41-4-3.6-.19.13-.38.26-.57.4.41,1.97,1.08,4.19-1.49,4.94-.86.25-2.19-.49-3.04-1.13-.45-.33-.33-1.42-.47-2.17.25-.03.49-.07.74-.1.07.42-.02.99.23,1.23.63.6,1.39,1.39,2.14,1.44.44.03,1.47-1.39,1.32-1.86-.22-.69-1.21-1.23-1.98-1.63-.49-.25-1.18-.09-1.77-.17-2.6-.35-5.36,2.39-5.15,4.24,1.6.8,3.11,1.12,3.81,2.06.42.56-.26,2.19-.82,3.1-.28.46-1.41.41-2.15.59-.05-.22-.1-.45-.15-.67,1.55-.16,3.1-.34,2.67-2.47-.41-1.98-1.89-1.2-3.45-1.22ZM277.33,20.43c.9-1.25,1.86-2,1.8-2.66-.06-.66-1.13-1.64-1.8-1.69-.57-.04-1.65,1.04-1.7,1.68-.05.67.86,1.42,1.71,2.66Z"/><path class="cls-1" d="M271.94,45.49c5.37.08,10.13,4.83,10,9.99-.13,5.31-5.07,10.01-10.41,9.89-5.31-.12-9.67-4.82-9.57-10.31.09-5.4,4.53-9.65,9.99-9.57ZM273.25,48.11c1.37.73,1.81,1.72.97,3.15-.77,1.31-1.89,1.7-3.28,1.25-1.46-.47-1.96-1.56-1.65-3.02.14-.68.32-1.35.51-2.14-3.77.97-5.67,2.99-5.65,5.19,1.56.42,3.11.54,4.28,1.27.54.34.72,2.02.4,2.82-.9,2.21-2.87,2.13-5.04,1.4,1.1,2.74,2.6,4.57,5.54,5.34-.31-2.17-.56-4.11,1.6-4.94.68-.26,1.74,0,2.45.37,2.23,1.17.64,2.99.43,4.74,3-.79,4.93-2.37,5.94-5.15-5.13-1.1-5.76-1.61-4.93-3.18.9.67,1.79,1.48,2.83,1.99.23.11,1.51-1.15,1.42-1.31-.57-1.08-1.38-2.03-2.1-3,.03,0,.5-.05.97-.08.56-.04,1.12-.05,1.73-.08-.88-2.89-2.37-4.63-4.52-5.1-.55-.12-1.22.35-1.83.55-.6.05-1.38-.12-1.75.2-.64.56-1.24,1.37-1.39,2.16-.06.33,1.34,1.38,1.62,1.24.71-.37,1.31-1.16,1.67-1.92.21-.45-.13-1.15-.22-1.74ZM271.83,58.34c-.89,1.14-1.9,1.89-1.82,2.48.1.73,1.09,1.81,1.74,1.85.63.04,1.76-1.01,1.86-1.69.09-.63-.91-1.42-1.79-2.63ZM269,55.46c-1.24-.89-2.01-1.88-2.62-1.78-.67.1-1.52,1.13-1.66,1.88-.09.46,1.01,1.61,1.56,1.61.73,0,1.45-.85,2.72-1.7Z"/><path class="cls-1" d="M260.75,36.68c.02,4.1-3.35,7.44-7.5,7.41-4.11-.02-7.26-3.34-7.24-7.62.02-4.13,3.21-7.32,7.28-7.29,4.11.03,7.43,3.38,7.45,7.5ZM253.19,32.33c-2.53.04-4.33,1.85-4.24,4.27.1,2.4,2.21,4.4,4.6,4.34,2.36-.06,4.4-2.09,4.33-4.3-.09-2.74-1.85-4.35-4.7-4.31Z"/><path class="cls-1" d="M282.9,36.81c-.05-4.16,3.27-7.61,7.32-7.63,3.97-.01,7.46,3.54,7.44,7.57-.02,4.08-3.25,7.29-7.35,7.3-4.09.01-7.36-3.19-7.41-7.25ZM294.73,36.54c-.04-2.52-2.07-4.3-4.83-4.25-2.41.05-4.22,1.94-4.2,4.38.02,2.52,2.15,4.66,4.61,4.62,2.49-.04,4.46-2.16,4.42-4.75Z"/><path class="cls-1" d="M730.62,7.56c1.27-.51,2.11-.97,3.01-1.2,5.07-1.31,10.18-1.29,15.28-.24,3.17.65,3.47,1.4,1.46,4.01-3.65,4.75-4.87,10-3.35,15.75,2.53,9.57,12.81,14.86,22.16,11.51,4.4-1.57,4.69-1.36,4.15,3.24-.56,4.77-1.7,9.32-5.17,13.13-7.33-7.62-16.1-11.91-26.75-11.91-10.59,0-19.2,4.56-26.71,11.99-3.72-5.67-5.23-11.6-4.58-18.23,7.67,3.65,15.12,4.33,21.35-1.98,8.42-8.54,6.97-17.39-.85-26.07ZM733.41,8.26c5.74,7.58,7.06,15.52,1.78,23.3-5.74,8.46-14.21,9.6-23.54,6.81-.38,3.87,1.28,9.58,3.87,13.26,7.29-7.24,15.98-11.26,26.36-11.23,10.34.03,19.04,4.04,26.52,11.4,2.26-4.4,3.61-8.7,3.48-13.73-9.2,2.96-17.38,2.32-23.28-5.79-6-8.25-4.37-16.4,1.28-24.12-5.51-2.21-10.87-1.89-16.48.12Z"/><path class="cls-1" d="M762.15,8.27c7.59-.03,13.73,5.98,13.82,13.53.09,7.47-6.09,13.7-13.61,13.74-7.78.04-13.9-5.95-13.92-13.63-.02-7.5,6.12-13.61,13.72-13.64ZM773.84,21.82c-.03-6.36-5.43-11.65-11.79-11.54-6.35.11-11.47,5.3-11.46,11.61,0,6.36,5.29,11.64,11.68,11.66,6.33.02,11.6-5.33,11.57-11.74Z"/><path class="cls-1" d="M734.79,21.95c-.02,7.64-6.14,13.58-13.97,13.57-7.07-.01-13.71-6.34-13.46-13.22.29-7.91,4.7-13.96,14.18-13.9,7.88.06,13.27,5.58,13.26,13.55ZM721.11,34.2c6.48-.03,11.69-5.23,11.67-11.65-.03-6.43-5.24-11.56-11.74-11.55-6.5.01-11.74,5.23-11.68,11.62.06,6.43,5.31,11.6,11.76,11.57Z"/><path class="cls-1" d="M741.97,47.28c4.29.03,7.41,3.44,7.35,8.01-.06,3.73-3.56,7.03-7.48,7.04-4.37.02-8.07-3.47-8.01-7.56.07-4.56,3.29-7.52,8.14-7.49ZM747.9,54.5c.02-2.99-3.12-6.12-6.26-6.25-3.14-.13-6.32,3.06-6.39,6.4-.07,3.26,2.99,6.26,6.41,6.27,3.34.01,6.22-2.95,6.24-6.42Z"/><path class="cls-1" d="M742.56,66.77c-2.16-.27-4.35-.47-6.5-.88-.5-.09-.87-.89-1.3-1.37.54-.21,1.08-.6,1.62-.6,4.13,0,8.26.04,12.38.17.75.02,1.49.51,2.24.78-.63.42-1.21,1.1-1.89,1.21-2.16.34-4.35.47-6.56.68Z"/><path class="cls-1" d="M725.31,53.57c2.36,1.28,1.68,2.84,1.03,4.24-.85,1.84-2.49,2.17-4.2,1.5-1.68-.66-2.85-1.98-2.21-3.89.55-1.64,1.52-3.14,4.2-2.6-1.78,1.13-4.33,1.67-3,4.15.45.83,2.14,1.66,3.02,1.45,2.6-.61,1.8-2.75,1.15-4.84Z"/><path class="cls-1" d="M758.92,58.95c1.82-.22,3.58-.74,3.47-2.8-.05-.96-1.28-2.49-2.18-2.65-2.24-.4-3.01,1.4-3.32,3.62-1.37-2.06.1-3.07,1.12-3.92,1.43-1.2,2.96-.79,4.25.47,1.3,1.27,1.62,2.77.57,4.26-.93,1.3-2.2,2.21-3.91,1.03Z"/><path class="cls-1" d="M45.32,56.12c.11,5.13-3.74,9.24-8.76,9.34-5.35.11-9.45-3.82-9.49-9.1-.04-5.64,3.76-9.89,8.92-9.97,5.43-.08,9.2,3.85,9.33,9.74ZM36.24,47.6c-4.32-.04-7.8,3.42-7.79,7.73,0,4.25,3.38,7.61,7.65,7.61,4.27,0,7.69-3.3,7.77-7.52.08-4.38-3.24-7.79-7.63-7.83Z"/><path class="cls-1" d="M59.34,22.67c0,5.06-3.97,9.04-9.03,9.07-5,.03-9.15-4.09-9.12-9.04.03-5.06,4.03-9.02,9.11-9.02,5.14,0,9.04,3.87,9.05,8.99ZM50.24,15.02c-4.21.01-7.77,3.46-7.75,7.51.01,3.98,3.68,7.55,7.78,7.56,4.2.01,7.64-3.38,7.67-7.57.03-4.14-3.43-7.52-7.69-7.51Z"/><path class="cls-1" d="M31.42,22.64c.05,5.01-3.99,9.07-9.02,9.08-4.96,0-9.04-3.91-9.12-8.75-.08-5.21,4.03-9.51,9.14-9.53,4.82-.02,8.95,4.21,9,9.21ZM21.94,15.04c-4.45.02-7.72,3.16-7.74,7.42-.02,4.46,3.38,7.67,8.05,7.62,4.35-.05,7.84-3.37,7.86-7.46.02-4.32-3.52-7.61-8.16-7.58Z"/><path class="cls-1" d="M17.47,37.74c3.31.02,5.81,2.47,5.77,5.65-.04,3.02-2.46,5.42-5.5,5.44-3.43.03-5.8-2.39-5.75-5.85.05-3.24,2.17-5.26,5.48-5.24ZM17.53,46.59c1.9.05,3.41-1.39,3.52-3.37.1-1.83-1.45-3.52-3.32-3.59-1.87-.07-3.39,1.44-3.46,3.43-.07,2.08,1.23,3.48,3.26,3.53Z"/><path class="cls-1" d="M60.66,43.08c.03,3.25-2.43,5.75-5.66,5.77-3.04.02-5.53-2.36-5.58-5.35-.06-3.32,2.32-5.79,5.58-5.8,3.35-.02,5.64,2.15,5.66,5.39ZM55.15,46.59c1.98-.03,3.39-1.49,3.37-3.49-.02-1.94-1.51-3.44-3.45-3.47-2.01-.03-3.48,1.53-3.46,3.67.02,1.98,1.45,3.31,3.55,3.28Z"/><path class="cls-1" d="M133.07,45.58c-4.82-.02-8.52-3.67-8.51-8.39,0-4.71,3.76-8.47,8.47-8.47,4.69,0,8.51,3.78,8.51,8.44,0,4.75-3.72,8.44-8.47,8.42ZM132.94,44.14c3.82.03,7-3,7.1-6.76.1-3.74-3.03-6.92-6.86-6.98-3.91-.06-7.09,3.09-7.06,7,.03,3.73,3.04,6.71,6.82,6.74Z"/><path class="cls-1" d="M146.03,37.27c.02-4.74,3.77-8.34,8.61-8.28,4.57.06,8.2,3.7,8.2,8.23,0,4.74-3.78,8.47-8.52,8.43-4.66-.04-8.31-3.73-8.29-8.38ZM161.23,37.41c.02-3.94-2.87-6.94-6.72-6.97-3.87-.02-6.95,2.94-7.02,6.74-.07,3.76,3,6.88,6.83,6.95,3.95.07,6.89-2.8,6.92-6.72Z"/><path class="cls-1" d="M165.11,47.31c4.69.04,8.31,3.75,8.21,8.43-.09,4.58-3.96,8.34-8.51,8.26-4.56-.08-8.36-3.99-8.26-8.51.1-4.59,3.9-8.22,8.55-8.18ZM165.03,48.44c-3.59-.07-6.95,3.23-7.03,6.9-.08,3.54,3.06,6.75,6.72,6.89,3.72.13,7.08-3,7.14-6.68.06-3.59-3.25-7.04-6.84-7.1Z"/><path class="cls-1" d="M176,29.04c4.48.12,8.19,3.98,8.07,8.42-.12,4.64-3.95,8.28-8.56,8.15-4.62-.13-8.34-4.01-8.19-8.54.15-4.56,4.03-8.16,8.69-8.03ZM175.9,30.44c-3.89-.03-6.99,2.94-7.06,6.75-.07,3.75,3.06,6.93,6.85,6.96,3.83.04,6.97-2.98,7.05-6.78.08-3.79-3-6.91-6.85-6.94Z"/><path class="cls-1" d="M143.9,63.32c-4.6-.05-8.36-3.75-8.28-8.14.08-4.46,3.86-7.96,8.52-7.87,4.44.08,8.21,3.76,8.25,8.02.03,4.28-3.96,8.04-8.48,7.99ZM150.69,55.42c.06-3.88-2.73-6.97-6.4-7.1-3.87-.13-7.29,3.19-7.32,7.1-.02,3.83,2.98,6.8,6.92,6.85,3.96.04,6.74-2.76,6.8-6.85Z"/><path class="cls-1" d="M144.36,26.06c-3.21,0-5.45-2.13-5.41-5.12.04-3.04,2.34-5.3,5.35-5.25,3.13.05,5.14,2.02,5.16,5.07.02,3.3-1.91,5.3-5.11,5.29ZM147.32,20.95c.03-1.71-1.2-3.04-2.89-3.11-1.83-.08-3.27,1.23-3.27,2.96,0,1.84,1.24,3.07,3.15,3.1,1.75.03,2.98-1.17,3.01-2.95Z"/><path class="cls-1" d="M169.73,20.8c0,2.95-2.16,5.17-5.07,5.22-2.94.04-5.29-2.28-5.32-5.26-.03-2.73,2.33-5.13,4.99-5.09,3.26.05,5.4,2.09,5.4,5.13ZM164.6,23.84c1.68-.01,3.06-1.32,3.11-2.95.05-1.62-1.5-3.06-3.28-3.05-1.68,0-2.85,1.28-2.87,3.11-.02,1.72,1.22,2.9,3.04,2.89Z"/><path class="cls-1" d="M762.32,24.42c-.8-1.22-1.56-1.87-1.58-2.54-.02-.53.85-1.1,1.33-1.66.6.52,1.59.99,1.69,1.59.09.61-.7,1.36-1.43,2.61Z"/><path class="cls-1" d="M721,19.51c.8,1.02,1.68,1.67,1.6,2.16-.13.71-.95,1.3-1.47,1.93-.55-.6-1.4-1.13-1.55-1.81-.11-.5.71-1.2,1.42-2.28Z"/></g></svg>