<svg width="26" height="26" viewBox="0 0 26 26" fill="none" xmlns="http://www.w3.org/2000/svg">
<path d="M13 5.41665L7.58856 13.2879C7.26279 13.7617 7.09991 13.9987 7.10969 14.1956C7.11821 14.3671 7.20188 14.5262 7.33839 14.6303C7.49513 14.75 7.78264 14.75 8.35767 14.75H13V20.5833L18.4115 12.7121C18.7373 12.2382 18.9002 12.0013 18.8904 11.8044C18.8819 11.6329 18.7982 11.4738 18.6617 11.3696C18.505 11.25 18.2174 11.25 17.6424 11.25H13V5.41665Z" stroke="#037E83" stroke-width="2" stroke-linecap="round" stroke-linejoin="round"/>
<path d="M13 24.6666C19.4434 24.6666 24.6667 19.4433 24.6667 13C24.6667 6.55666 19.4434 1.33331 13 1.33331C6.55672 1.33331 1.33337 6.55666 1.33337 13C1.33337 19.4433 6.55672 24.6666 13 24.6666Z" stroke="#037E83" stroke-width="2" stroke-linecap="round" stroke-linejoin="round"/>
</svg>
