<svg width="50" height="50" viewBox="0 0 50 50" fill="none" xmlns="http://www.w3.org/2000/svg">
<path fill-rule="evenodd" clip-rule="evenodd" d="M41.6666 20.8333C41.6666 30.0381 33.3333 37.5 24.9999 45.8333C16.6666 37.5 8.33325 30.0381 8.33325 20.8333C8.33325 11.6286 15.7952 4.16667 24.9999 4.16667C34.2047 4.16667 41.6666 11.6286 41.6666 20.8333Z" fill="#037E83" stroke="#1B1D20" stroke-width="4" stroke-linecap="round" stroke-linejoin="round"/>
<path d="M26.4325 12L17.5259 22.6879C17.1771 23.1064 17.0027 23.3157 17.0001 23.4925C16.9977 23.6461 17.0662 23.7923 17.1857 23.8889C17.3232 24 17.5957 24 18.1405 24H25.4325L24.4325 32L33.339 21.3121C33.6878 20.8936 33.8622 20.6843 33.8649 20.5075C33.8672 20.3539 33.7988 20.2077 33.6792 20.1111C33.5417 20 33.2693 20 32.7245 20H25.4325L26.4325 12Z" stroke="white" stroke-width="2" stroke-linecap="round" stroke-linejoin="round"/>
</svg>
