<svg width="23" height="22" viewBox="0 0 23 22" fill="none" xmlns="http://www.w3.org/2000/svg">
<path d="M11.3333 4H11.7677C14.815 4 16.3386 4 16.917 4.54729C17.4169 5.02037 17.6385 5.71728 17.5035 6.39221C17.3474 7.17302 16.1034 8.05285 13.6156 9.81253L9.55106 12.6875C7.06325 14.4471 5.81933 15.327 5.66318 16.1078C5.5282 16.7827 5.74976 17.4796 6.24971 17.9527C6.82808 18.5 8.3517 18.5 11.3989 18.5H12.3333M7.83334 4C7.83334 5.65685 6.4902 7 4.83334 7C3.17649 7 1.83334 5.65685 1.83334 4C1.83334 2.34315 3.17649 1 4.83334 1C6.4902 1 7.83334 2.34315 7.83334 4ZM21.8333 18C21.8333 19.6569 20.4902 21 18.8333 21C17.1765 21 15.8333 19.6569 15.8333 18C15.8333 16.3431 17.1765 15 18.8333 15C20.4902 15 21.8333 16.3431 21.8333 18Z" stroke="#322F35" stroke-width="2" stroke-linecap="round" stroke-linejoin="round"/>
</svg>
