<svg xmlns="http://www.w3.org/2000/svg" width="25" height="24" viewBox="0 0 25 24" fill="none">
<path d="M12.3333 5H12.7677C15.815 5 17.3386 5 17.917 5.54729C18.4169 6.02037 18.6385 6.71728 18.5035 7.39221C18.3474 8.17302 17.1034 9.05285 14.6156 10.8125L10.5511 13.6875C8.06325 15.4471 6.81933 16.327 6.66318 17.1078C6.5282 17.7827 6.74976 18.4796 7.24971 18.9527C7.82808 19.5 9.3517 19.5 12.3989 19.5H13.3333M8.83334 5C8.83334 6.65685 7.4902 8 5.83334 8C4.17649 8 2.83334 6.65685 2.83334 5C2.83334 3.34315 4.17649 2 5.83334 2C7.4902 2 8.83334 3.34315 8.83334 5ZM22.8333 19C22.8333 20.6569 21.4902 22 19.8333 22C18.1765 22 16.8333 20.6569 16.8333 19C16.8333 17.3431 18.1765 16 19.8333 16C21.4902 16 22.8333 17.3431 22.8333 19Z" stroke="#037E83" stroke-width="2" stroke-linecap="round" stroke-linejoin="round"/>
</svg>