<svg xmlns="http://www.w3.org/2000/svg" width="25" height="24" viewBox="0 0 25 24" fill="none">
<path d="M5.48297 19.4384C6.09129 18.0052 7.51159 17 9.16667 17H15.1667C16.8217 17 18.242 18.0052 18.8504 19.4384M16.1667 9.5C16.1667 11.7091 14.3758 13.5 12.1667 13.5C9.95753 13.5 8.16667 11.7091 8.16667 9.5C8.16667 7.29086 9.95753 5.5 12.1667 5.5C14.3758 5.5 16.1667 7.29086 16.1667 9.5ZM22.1667 12C22.1667 17.5228 17.6895 22 12.1667 22C6.64382 22 2.16667 17.5228 2.16667 12C2.16667 6.47715 6.64382 2 12.1667 2C17.6895 2 22.1667 6.47715 22.1667 12Z" stroke="#037E83" stroke-width="2" stroke-linecap="round" stroke-linejoin="round"/>
</svg>