<svg xmlns="http://www.w3.org/2000/svg" width="25" height="24" viewBox="0 0 25 24" fill="none">
<path d="M5.48304 19.4384C6.09137 18.0052 7.51167 17 9.16675 17H15.1667C16.8218 17 18.2421 18.0052 18.8504 19.4384M16.1667 9.5C16.1667 11.7091 14.3759 13.5 12.1667 13.5C9.95761 13.5 8.16675 11.7091 8.16675 9.5C8.16675 7.29086 9.95761 5.5 12.1667 5.5C14.3759 5.5 16.1667 7.29086 16.1667 9.5ZM22.1667 12C22.1667 17.5228 17.6896 22 12.1667 22C6.6439 22 2.16675 17.5228 2.16675 12C2.16675 6.47715 6.6439 2 12.1667 2C17.6896 2 22.1667 6.47715 22.1667 12Z" stroke="#1B1D20" stroke-width="2" stroke-linecap="round" stroke-linejoin="round"/>
</svg>