<svg width="18" height="22" viewBox="0 0 18 22" fill="none" xmlns="http://www.w3.org/2000/svg">
<path d="M8.30201 20.6149C8.5234 20.744 8.6341 20.8086 8.79032 20.8421C8.91156 20.8681 9.08844 20.8681 9.20968 20.8421C9.3659 20.8086 9.4766 20.744 9.69799 20.6149C11.646 19.4784 17 15.9084 17 11V6.21759C17 5.41808 17 5.01833 16.8692 4.6747C16.7537 4.37113 16.566 4.10027 16.3223 3.88552C16.0465 3.64243 15.6722 3.50207 14.9236 3.22134L9.5618 1.21067C9.3539 1.13271 9.24995 1.09373 9.14302 1.07827C9.04816 1.06457 8.95184 1.06457 8.85698 1.07827C8.75005 1.09373 8.6461 1.13271 8.4382 1.21067L3.0764 3.22134C2.3278 3.50207 1.9535 3.64243 1.67766 3.88552C1.43398 4.10027 1.24627 4.37113 1.13076 4.6747C1 5.01833 1 5.41808 1 6.21759V11C1 15.9084 6.35396 19.4784 8.30201 20.6149Z" stroke="#037E83" stroke-width="2" stroke-linecap="round" stroke-linejoin="round"/>
</svg>
