<svg width="26" height="25" viewBox="0 0 26 25" fill="none" xmlns="http://www.w3.org/2000/svg">
<path d="M7.56361 19.8839C7.56361 20.9665 7.56361 22.0465 7.56361 23.1416C7.56361 23.8433 7.00533 24.2493 6.36657 24.0438C6.17393 23.9804 6.0087 23.8535 5.89808 23.6841C5.78746 23.5147 5.73805 23.3127 5.75799 23.1116C5.75799 21.5178 5.75799 19.9248 5.75799 18.3327C5.75799 17.7814 5.75799 17.2301 5.75799 16.6788C5.75799 16.4633 5.68757 16.4107 5.48387 16.4081C5.28018 16.4056 5.21228 16.4733 5.21228 16.6813C5.21228 18.7963 5.21228 20.9113 5.21228 23.0238C5.21228 23.5752 5.02115 23.8934 4.6213 24.0262C3.94985 24.2618 3.3463 23.8207 3.34127 23.0765C3.34127 21.633 3.34127 20.1921 3.34127 18.7487C3.34127 18.0671 3.34127 17.3855 3.34127 16.7038C3.34127 16.4758 3.29097 16.3906 3.04452 16.3981C2.45103 16.4157 1.85754 16.3981 1.26656 16.3981C0.999996 16.3981 0.944671 16.353 1.01508 16.0849C1.81982 13.2966 2.61533 10.5058 3.40162 7.71251C3.4318 7.60726 3.60784 7.44938 3.40162 7.3717C3.19541 7.29401 3.08476 7.40428 3.02189 7.62229C2.56923 9.21106 2.10148 10.7948 1.63875 12.3836C1.59432 12.632 1.45902 12.8553 1.25902 13.0101C1.13636 13.1001 0.989736 13.1519 0.837592 13.159C0.685448 13.1662 0.534585 13.1283 0.40399 13.0502C0.26748 12.9817 0.155828 12.8724 0.0846016 12.7376C0.0133756 12.6029 -0.013874 12.4493 0.00665228 12.2984C0.0346128 12.05 0.0868327 11.8049 0.16257 11.5667C0.665528 9.88099 1.17855 8.19532 1.70162 6.50965C1.85108 5.95245 2.18439 5.46158 2.64787 5.1161C3.11135 4.77062 3.67803 4.59064 4.25665 4.60513C5.07983 4.60513 5.90385 4.60513 6.7287 4.60513C7.29622 4.60623 7.84843 4.78863 8.30424 5.12556C8.76004 5.46249 9.09541 5.93619 9.2611 6.47708C9.81184 8.26632 10.35 10.0581 10.8882 11.8523C11.0567 12.4137 10.946 12.8121 10.5889 13.0351C10.5036 13.0943 10.407 13.1353 10.3051 13.1555C10.2031 13.1758 10.0981 13.1748 9.9966 13.1527C9.89508 13.1306 9.79923 13.0878 9.71507 13.027C9.63091 12.9663 9.56026 12.8888 9.50755 12.7996C9.41768 12.655 9.34988 12.4979 9.30636 12.3335C8.85873 10.7948 8.41026 9.25701 7.96095 7.72003C7.94083 7.65487 7.92071 7.58721 7.89808 7.51955C7.82515 7.29903 7.63402 7.34914 7.4932 7.37922C7.35237 7.40929 7.44038 7.56215 7.46553 7.64485C8.27362 10.4148 9.08422 13.1813 9.89734 15.9445C10.0281 16.3956 10.0306 16.3931 9.57293 16.3931C9.01968 16.3931 8.46642 16.4132 7.91568 16.3931C7.60888 16.3781 7.55607 16.4833 7.55858 16.7615C7.57618 17.804 7.55858 18.8464 7.55858 19.8889L7.56361 19.8839Z" fill="#07494F"/>
<path d="M19.0336 15.4434C19.0336 12.9591 19.0336 10.4749 19.0336 7.99067C19.0336 7.88542 19.1317 7.71 18.9104 7.68494C18.7343 7.66489 18.6111 7.68494 18.6136 7.9205C18.6262 9.02312 18.6136 10.1257 18.6136 11.2284C18.6136 11.8799 18.6136 12.5314 18.6136 13.1805C18.627 13.3508 18.5854 13.521 18.4949 13.6661C18.4045 13.8113 18.2698 13.9238 18.1107 13.9874C17.9801 14.0492 17.8357 14.076 17.6915 14.0651C17.5474 14.0542 17.4087 14.006 17.289 13.9252C17.1694 13.8445 17.0729 13.734 17.0093 13.6047C16.9457 13.4754 16.917 13.3317 16.9262 13.188C16.9262 12.6367 16.9262 12.0854 16.9262 11.5341C16.9262 10.1107 16.9262 8.69066 16.9262 7.27397C16.9006 6.78993 17.0144 6.3087 17.2541 5.88694C17.4938 5.46517 17.8494 5.12043 18.2791 4.89332C18.5853 4.71839 18.9322 4.62679 19.2851 4.62769C20.6808 4.62769 22.079 4.62769 23.4772 4.62769C24.1138 4.62735 24.7263 4.87001 25.1889 5.3058C25.6515 5.74158 25.929 6.33738 25.9644 6.97075C26.0197 8.49186 25.992 10.0155 25.9996 11.5391C25.9996 12.0804 25.9996 12.6217 25.9996 13.1629C25.982 13.8746 25.3533 14.2706 24.7422 13.9648C24.3851 13.7844 24.3096 13.4637 24.3121 13.1053V7.94807C24.3121 7.81275 24.3524 7.66991 24.1185 7.66239C23.8846 7.65487 23.8972 7.7952 23.8972 7.94807C23.8972 12.8196 23.8972 17.6895 23.8972 22.5577C23.9044 22.7173 23.9027 22.877 23.8922 23.0364C23.8854 23.1752 23.8512 23.3113 23.7915 23.4369C23.7318 23.5625 23.6477 23.6751 23.5442 23.7683C23.4407 23.8614 23.3197 23.9333 23.1882 23.9797C23.0568 24.0261 22.9174 24.0462 22.7781 24.0388C22.4846 24.0469 22.1997 23.9399 21.9847 23.7406C21.7697 23.5414 21.6419 23.266 21.6289 22.9737C21.6087 22.683 21.6289 22.3923 21.6289 22.1017V14.2255C21.6289 14.1102 21.6289 14.0074 21.4654 14.0024C21.3019 13.9974 21.2718 14.0876 21.2718 14.228C21.2718 15.3506 21.2718 16.4708 21.2718 17.5935C21.2718 19.3476 21.2718 21.0817 21.2718 22.8234C21.2718 23.4925 20.8794 23.9611 20.2885 24.0312C20.1281 24.055 19.9644 24.0425 19.8095 23.9946C19.6546 23.9468 19.5125 23.8649 19.3937 23.7549C19.2749 23.6449 19.1824 23.5097 19.1231 23.3593C19.0638 23.2089 19.0392 23.0472 19.0512 22.886C19.0361 20.4001 19.0302 17.9192 19.0336 15.4434Z" fill="#07494F"/>
<path d="M12.9981 12.0353C12.9981 8.19281 12.9981 4.35621 12.9981 0.52545C12.9981 0.23476 13.0685 0.134522 13.3627 0.159581C13.6734 0.178373 13.985 0.178373 14.2957 0.159581C14.4516 0.159581 14.5195 0.2097 14.5095 0.365069C14.5095 0.465307 14.5095 0.565545 14.5095 0.665783C14.5095 8.27217 14.5095 15.8735 14.5095 23.4699C14.5095 23.9235 14.5095 23.921 14.0543 23.921C13.7827 23.921 13.5111 23.921 13.2395 23.921C13.0534 23.921 12.988 23.8633 12.988 23.6704C12.988 23.0289 12.988 22.3873 12.988 21.7458L12.9981 12.0353Z" fill="#07494F"/>
<path d="M19.5114 2.11923C19.502 1.85716 19.5456 1.59587 19.6398 1.35098C19.7339 1.10609 19.8766 0.882611 20.0593 0.693884C20.2421 0.505157 20.4611 0.355052 20.7033 0.252529C20.9455 0.150006 21.206 0.097168 21.4692 0.097168C21.7323 0.097168 21.9928 0.150006 22.235 0.252529C22.4773 0.355052 22.6963 0.505157 22.879 0.693884C23.0617 0.882611 23.2044 1.10609 23.2986 1.35098C23.3927 1.59587 23.4364 1.85716 23.4269 2.11923C23.4088 2.62454 23.1945 3.1031 22.8294 3.45417C22.4642 3.80525 21.9766 4.00143 21.4692 4.00143C20.9618 4.00143 20.4741 3.80525 20.109 3.45417C19.7438 3.1031 19.5296 2.62454 19.5114 2.11923Z" fill="#07494F"/>
<path d="M7.4429 2.12926C7.43842 2.5144 7.31956 2.88958 7.10132 3.20748C6.88307 3.52537 6.57523 3.77173 6.21662 3.91546C5.85802 4.05919 5.46472 4.09385 5.08637 4.01508C4.70801 3.9363 4.36155 3.74762 4.0907 3.47283C3.81985 3.19804 3.63675 2.84947 3.5645 2.47109C3.49224 2.09272 3.53408 1.70149 3.68473 1.34679C3.83538 0.992079 4.0881 0.689786 4.41098 0.478051C4.73386 0.266316 5.11245 0.154626 5.49896 0.157075C5.75666 0.15904 6.01143 0.211648 6.24868 0.311887C6.48594 0.412126 6.70101 0.558026 6.88159 0.741228C7.06217 0.92443 7.2047 1.14133 7.30102 1.37952C7.39734 1.6177 7.44555 1.87248 7.4429 2.12926Z" fill="#07494F"/>
</svg>
