<svg width="21" height="18" viewBox="0 0 21 18" fill="none" xmlns="http://www.w3.org/2000/svg">
<path d="M10.5011 0.597293C14.3716 0.59915 18.0898 2.13717 20.8697 4.88629C21.0337 5.04535 21.0529 5.12907 20.8697 5.29371C20.4815 5.65647 20.1152 6.03877 19.7489 6.40991C19.604 6.56338 19.5111 6.56059 19.3526 6.40991C18.0131 5.13465 16.5233 4.0603 14.7628 3.48825C9.97623 1.9451 5.65984 2.79063 1.87377 6.2062C1.43366 6.60245 1.43639 6.60524 1.00448 6.1755C0.701046 5.86855 0.411282 5.55043 0.0996486 5.25464C-0.0452334 5.1179 -0.0206308 5.04535 0.0996486 4.91699C2.31586 2.7095 5.15441 1.26704 8.21577 0.792628C8.97046 0.659271 9.73518 0.593908 10.5011 0.597293Z" fill="#07494F"/>
<path d="M18.0431 8.13164C18.0053 8.18445 17.9642 8.23478 17.9201 8.28233C17.5265 8.69812 17.1247 9.11948 16.7337 9.52969C16.5615 9.71665 16.485 9.52969 16.3975 9.45155C15.5406 8.55001 14.4784 7.87895 13.3058 7.4982C10.0938 6.46013 7.20433 7.07404 4.6894 9.38179C4.43791 9.61061 4.3149 9.60224 4.10714 9.35667C3.79277 8.98554 3.44287 8.6451 3.10117 8.30187C2.98089 8.18187 2.93988 8.10374 3.10117 7.95863C4.75096 6.29297 6.89828 5.23723 9.20261 4.95885C12.524 4.56538 15.3888 5.58671 17.8354 7.88329C17.9147 7.95584 18.0185 8.00886 18.0431 8.13164Z" fill="#07494F"/>
<path d="M10.7334 9.16413C12.2178 9.16413 13.6694 9.80595 14.9542 10.9668C15.0963 11.0952 15.0963 11.1761 14.9542 11.3072C14.5523 11.7007 14.1614 12.1053 13.7705 12.5099C13.6612 12.6244 13.5901 12.6327 13.4561 12.5099C11.5699 10.897 9.39943 10.8914 7.54604 12.5099C7.40389 12.6327 7.32735 12.6299 7.20433 12.5099C6.8353 12.0997 6.45259 11.7035 6.05895 11.3184C5.91133 11.1761 5.9168 11.0924 6.05895 10.9556C7.33294 9.76621 9.00741 9.12447 10.7334 9.16413Z" fill="#07494F"/>
<path d="M12.2123 15.8948C12.2113 16.1206 12.1664 16.344 12.0804 16.552C11.9943 16.7601 11.8687 16.9487 11.7109 17.1069C11.5531 17.2652 11.3661 17.3899 11.1608 17.4741C10.9555 17.5582 10.736 17.6 10.5148 17.597C10.0756 17.583 9.65876 17.396 9.35169 17.0752C9.04462 16.7544 8.87114 16.3247 8.8676 15.8761C8.86407 15.4276 9.03076 14.9951 9.33273 14.6693C9.63471 14.3435 10.0485 14.1497 10.4874 14.1284C10.9441 14.1342 11.3803 14.3224 11.7027 14.6526C12.0252 14.9827 12.2081 15.4286 12.2123 15.8948Z" fill="#07494F"/>
</svg>
