<svg width="18" height="16" viewBox="0 0 18 16" fill="none" xmlns="http://www.w3.org/2000/svg">
<path d="M12 4.25C12 3.55252 12 3.20378 11.9233 2.91766C11.7153 2.1412 11.1088 1.53472 10.3323 1.32667C10.0462 1.25 9.69748 1.25 9 1.25C8.30252 1.25 7.95378 1.25 7.66766 1.32667C6.8912 1.53472 6.28472 2.1412 6.07667 2.91766C6 3.20378 6 3.55252 6 4.25M9.6 12.125H13.275C13.485 12.125 13.59 12.125 13.6702 12.0841C13.7408 12.0482 13.7982 11.9908 13.8341 11.9202C13.875 11.84 13.875 11.735 13.875 11.525V9.725C13.875 9.51498 13.875 9.40997 13.8341 9.32975C13.7982 9.25919 13.7408 9.20183 13.6702 9.16587C13.59 9.125 13.485 9.125 13.275 9.125H9.6C9.38998 9.125 9.28497 9.125 9.20475 9.16587C9.13419 9.20183 9.07683 9.25919 9.04087 9.32975C9 9.40997 9 9.51498 9 9.725V11.525C9 11.735 9 11.84 9.04087 11.9202C9.07683 11.9908 9.13419 12.0482 9.20475 12.0841C9.28497 12.125 9.38998 12.125 9.6 12.125ZM5.1 14.75H12.9C14.1601 14.75 14.7902 14.75 15.2715 14.5048C15.6948 14.289 16.039 13.9448 16.2548 13.5215C16.5 13.0402 16.5 12.4101 16.5 11.15V7.85C16.5 6.58988 16.5 5.95982 16.2548 5.47852C16.039 5.05516 15.6948 4.71095 15.2715 4.49524C14.7902 4.25 14.1601 4.25 12.9 4.25H5.1C3.83988 4.25 3.20982 4.25 2.72852 4.49524C2.30516 4.71095 1.96095 5.05516 1.74524 5.47852C1.5 5.95982 1.5 6.58988 1.5 7.85V11.15C1.5 12.4101 1.5 13.0402 1.74524 13.5215C1.96095 13.9448 2.30516 14.289 2.72852 14.5048C3.20982 14.75 3.83988 14.75 5.1 14.75Z" stroke="#037E83" stroke-width="2" stroke-linecap="round" stroke-linejoin="round"/>
</svg>
